<?xml version="1.0" encoding="UTF-8"?>
<svg version="1.1" xmlns="http://www.w3.org/2000/svg" width="1024" height="1024">
<path d="M0 0 C0.85830917 0.16233124 1.71661835 0.32466248 2.60093689 0.49191284 C5.92346883 0.98856023 9.02837025 1.12694627 12.38500977 1.12939453 C13.62972549 1.13254669 14.87444122 1.13569885 16.15687561 1.13894653 C17.50171952 1.13715666 18.8465631 1.13510568 20.19140625 1.1328125 C21.58332842 1.13348692 22.97525047 1.13445809 24.36717224 1.13571167 C27.27628711 1.13718166 30.18537115 1.13505626 33.09448242 1.13037109 C36.81557189 1.1246689 40.53658929 1.12796034 44.25767612 1.13394356 C47.12904907 1.1375635 50.00040503 1.13640408 52.87177849 1.13381577 C54.2436518 1.13315074 55.61552667 1.13396003 56.98739815 1.13629532 C58.90639337 1.13884595 60.82539403 1.13426659 62.74438477 1.12939453 C63.83437271 1.12859894 64.92436066 1.12780334 66.04737854 1.12698364 C68.80952132 1.00819193 71.31232404 0.62687873 74 0 C74 0.66 74 1.32 74 2 C74.66 2 75.32 2 76 2 C76.4031543 2.98806641 76.80630859 3.97613281 77.22167969 4.99414062 C78.73188035 8.69302306 80.2462043 12.390206 81.76171875 16.08691406 C82.41452103 17.68086113 83.06623483 19.27525447 83.71679688 20.87011719 C84.65722795 23.17503876 85.60168599 25.4782761 86.546875 27.78125 C86.83246277 28.48366821 87.11805054 29.18608643 87.41229248 29.90979004 C89.1375264 34.10044168 91.03178371 38.14025491 93.14874268 42.14831543 C94.03823511 44.08317034 94.52374868 45.92889319 95 48 C95.63241992 49.67558141 96.29472491 51.34000634 96.9765625 52.99609375 C97.39220459 54.0104248 97.80784668 55.02475586 98.23608398 56.06982422 C98.69442627 57.18115723 99.15276855 58.29249023 99.625 59.4375 C100.36693439 61.24665462 101.10884923 63.05581735 101.85014343 64.86523438 C102.38217653 66.16385379 102.91450275 67.46235314 103.44709778 68.76074219 C105.52672937 73.83362855 107.58910641 78.91335571 109.64453125 83.99609375 C109.95416306 84.76169617 110.26379486 85.52729858 110.58280945 86.31610107 C111.21535022 87.88026201 111.84787269 89.44443035 112.4803772 91.00860596 C117.85705504 104.30192462 123.27312796 117.57730961 128.79272461 130.81201172 C132.96366637 140.83423054 136.98164117 150.91593722 141 161 C152.07211578 188.76623138 163.16037305 216.52339923 174.5144043 244.17578125 C175.24142626 245.94659301 175.96839594 247.71742622 176.6953125 249.48828125 C177.2291732 250.78881943 177.2291732 250.78881943 177.77381897 252.1156311 C181.42241974 261.01359866 185.02041413 269.93184004 188.6182251 278.85043335 C194.17472835 292.61894665 199.75952261 306.37565758 205.4413147 320.09301758 C206.10003236 321.68461086 206.75710427 323.27688637 207.41244507 324.86987305 C208.31035877 327.05076534 209.21470948 329.22886707 210.12109375 331.40625 C210.38484802 332.04989502 210.64860229 332.69354004 210.92034912 333.35668945 C212.04499862 336.03934639 212.92050203 337.92050203 215 340 C215.33 340.66 215.66 341.32 216 342 C216.99 342 217.98 342 219 342 C219.023235 333.27207125 219.04097176 324.54415326 219.05181217 315.81620026 C219.05701667 311.76287234 219.06406985 307.70956568 219.07543945 303.65625 C219.08635516 299.73996269 219.09229515 295.82369576 219.09487724 291.90739441 C219.0967159 290.41798075 219.1003062 288.92856813 219.10573006 287.43916321 C219.13096099 280.21941534 219.10175794 273.14989971 218 266 C217.85303365 261.59100956 218.0505808 257.40113921 218.50170898 253.01782227 C219.27863313 243.84640569 219.12347683 234.66138088 219.09765625 225.46484375 C219.09578724 223.49377987 219.09436562 221.52271552 219.09336853 219.551651 C219.08957735 214.39904465 219.07977921 209.24646714 219.06866455 204.09387207 C219.0583919 198.83406971 219.05385444 193.57426266 219.04882812 188.31445312 C219.03928921 179.09589105 219.02483886 169.87734719 219.00672913 160.65879822 C218.99955047 156.75557676 219.00286117 152.8526571 219.01586914 148.94946289 C219.03384312 143.22518446 219.04541335 137.50090961 219.05493164 131.77661133 C219.05997357 129.30232317 219.06680692 126.828038 219.07543945 124.35375977 C219.08755163 120.78921782 219.09323749 117.22471499 219.09765625 113.66015625 C219.10281754 112.55277603 219.10797882 111.44539581 219.11329651 110.30445862 C219.11337204 109.27336472 219.11344757 108.24227081 219.11352539 107.17993164 C219.115746 106.27408829 219.11796661 105.36824493 219.12025452 104.43495178 C219.08993816 102.03382042 219.08993816 102.03382042 218.43040466 99.92625427 C217.91048256 97.59936924 218.36566816 96.27880414 219 94 C219.08908937 92.40294297 219.12786456 90.80266423 219.12939453 89.203125 C219.13254669 88.2553418 219.13569885 87.30755859 219.13894653 86.33105469 C219.1369223 85.31430664 219.13489807 84.29755859 219.1328125 83.25 C219.13376923 82.19973633 219.13472595 81.14947266 219.13571167 80.06738281 C219.13639174 77.84830668 219.13454953 75.62922855 219.13037109 73.41015625 C219.12502044 70.01297539 219.13032198 66.61592674 219.13671875 63.21875 C219.13605794 61.06249971 219.13477671 58.9062495 219.1328125 56.75 C219.13584885 55.22487793 219.13584885 55.22487793 219.13894653 53.66894531 C219.13579437 52.72116211 219.13264221 51.77337891 219.12939453 50.796875 C219.12859894 49.96510742 219.12780334 49.13333984 219.12698364 48.27636719 C219.00318706 46.05713274 218.54390929 44.14589687 218 42 C218.32334611 40.66420953 218.65703997 39.33088967 219 38 C218.64841937 33.24529053 217.96526237 29.87333262 214.375 26.625 C213.199375 25.820625 213.199375 25.820625 212 25 C212 24.01 212 23.02 212 22 C208.34920174 20.38935371 204.9492568 19.55105909 201 19 C201 18.01 201 17.02 201 16 C200.40832031 15.82984375 199.81664062 15.6596875 199.20703125 15.484375 C194.46842097 14.03109811 190.43146836 12.76354594 187 9 C186.5 6.4375 186.5 6.4375 187 4 C188.5262416 2.0590173 189.41706439 1.11713095 191.86578107 0.62510318 C192.57212398 0.62515819 193.2784669 0.62521321 194.00621414 0.62526989 C194.82356797 0.61806335 195.64092179 0.6108568 196.48304391 0.60343188 C197.38077138 0.61080617 198.27849885 0.61818045 199.20343018 0.6257782 C200.15756735 0.62180379 201.11170452 0.61782939 202.09475493 0.61373454 C205.30713453 0.60407453 208.51907774 0.61595293 211.73144531 0.62768555 C214.02951726 0.62525849 216.32758816 0.62154 218.62565613 0.61662292 C224.88514359 0.60718807 231.14447534 0.61666683 237.40395069 0.62995505 C243.96622048 0.64126576 250.52848254 0.63716163 257.09075928 0.63520813 C268.13393606 0.63378049 279.17705489 0.6453532 290.22021484 0.66381836 C301.53761656 0.68273677 312.85494688 0.6899292 324.17236328 0.68432617 C336.51397527 0.67823408 348.85555582 0.67851436 361.19716525 0.689812 C367.72094061 0.69575675 374.24469269 0.69950391 380.76847076 0.6968441 C386.92443772 0.69493846 393.08031488 0.70323705 399.23626137 0.7189045 C401.47772919 0.72309361 403.71920623 0.72403492 405.96067619 0.72121429 C425.39945878 0.70049315 444.59424194 1.64732633 463.69921875 5.4140625 C467.09767404 6.11652155 467.09767404 6.11652155 471 6 C471 6.66 471 7.32 471 8 C472.155 8.20625 473.31 8.4125 474.5 8.625 C497.68503146 13.92546598 518.23479425 27.10010328 536.01953125 42.44921875 C537.88325333 44.0442522 539.77312682 45.60977441 541.69921875 47.12890625 C545.27871991 50.03990974 548.0413821 53.47282208 551 57 C551.6811084 57.78068848 551.6811084 57.78068848 552.37597656 58.57714844 C567.02289737 75.36937326 577.63779227 93.99743521 585 115 C585.27924316 115.76844238 585.55848633 116.53688477 585.84619141 117.32861328 C603.54654361 166.40828322 598.58425073 223.42635239 577.01953125 270.40625 C573.78909565 277.18049761 570.13197696 283.65568725 566.125 290 C565.74351807 290.60642334 565.36203613 291.21284668 564.96899414 291.83764648 C564.03679222 293.26434077 563.02526872 294.63864734 562 296 C561.34 296 560.68 296 560 296 C559.74605469 296.72316406 559.49210938 297.44632813 559.23046875 298.19140625 C556.21285327 305.07923333 550.60541525 310.93569074 544.73828125 315.55078125 C542.83604225 317.09234026 542.83604225 317.09234026 540.62109375 319.37890625 C515.98877713 344.01122287 476.88947486 362.556063 441.6328125 363.046875 C440.76398437 363.03140625 439.89515625 363.0159375 439 363 C438.67 363.66 438.34 364.32 438 365 C437.67 364.67 437.34 364.34 437 364 C435.0595464 364.06458393 433.12130184 364.20196332 431.1875 364.375 C430.12917969 364.46523438 429.07085938 364.55546875 427.98046875 364.6484375 C425.12292317 364.90284245 425.12292317 364.90284245 422.92578125 365.6015625 C421 366 421 366 418.69345045 365.53241825 C416.03875387 365.00766053 413.68045694 364.87683327 410.97901154 364.87974548 C409.98633884 364.87837113 408.99366614 364.87699678 407.97091246 364.87558079 C406.88774889 364.87917575 405.80458533 364.88277071 404.68859863 364.88647461 C403.53220902 364.88632575 402.37581941 364.88617689 401.18438768 364.88602352 C397.97867492 364.8865978 394.7730052 364.89165931 391.56730103 364.89859343 C388.10850372 364.90497051 384.649705 364.90553681 381.19090271 364.9067688 C375.19850572 364.90965503 369.20612104 364.91609362 363.21372986 364.92483521 C354.54430071 364.93738904 345.87487613 364.94346591 337.20543939 364.94776857 C323.13256144 364.9548357 309.05968924 364.96563768 294.98681641 364.97949219 C294.14461149 364.98032 293.30240656 364.98114781 292.43468028 364.98200071 C286.45645342 364.98790119 280.4782267 364.99393509 274.5 365 C267.67106129 365.00692796 260.84212252 365.01379558 254.01318359 365.02050781 C253.17200448 365.02133594 252.33082536 365.02216407 251.46415597 365.02301729 C237.44391135 365.03669815 223.42366664 365.04645989 209.40341711 365.05341816 C200.7545381 365.05790155 192.10567616 365.06594616 183.45680511 365.07856297 C177.53250062 365.08698236 171.60820006 365.091878 165.68388999 365.09398818 C162.2645761 365.09533445 158.8452843 365.09835107 155.42597771 365.10574722 C151.72110505 365.11293353 148.01627978 365.11400231 144.31140137 365.11352539 C143.22823781 365.11712035 142.14507424 365.12071531 141.02908754 365.12441921 C140.03641485 365.12304486 139.04374215 365.12167051 138.02098846 365.12025452 C136.73837167 365.12163721 136.73837167 365.12163721 135.42984343 365.12304783 C132.87049278 364.99344172 130.49708303 364.56251958 128 364 C127.68899522 355.9138756 127.68899522 355.9138756 130 353 C131.63608573 352.09848337 133.27381142 351.19974139 134.921875 350.3203125 C140.18027527 346.97944917 145.01108233 342.60196437 147.2409668 336.73486328 C148.10821084 332.46754281 147.68017471 330.71903258 146.0625 326.73046875 C145.58619141 325.52793457 145.10988281 324.32540039 144.61914062 323.08642578 C144.07993823 321.7865717 143.54021065 320.48693538 143 319.1875 C142.45340284 317.83124038 141.90851305 316.47429154 141.36523438 315.11669922 C139.90779361 311.49143386 138.42389725 307.87758833 136.93310547 304.26593018 C135.66831521 301.19454488 134.41719387 298.11766039 133.16552734 295.04090881 C129.95610984 287.15593567 126.73431989 279.27582136 123.43847656 271.42651367 C122.5503658 269.31099525 121.67037724 267.19202062 120.80371094 265.06762695 C120.46114258 264.2499585 120.11857422 263.43229004 119.765625 262.58984375 C119.34458496 261.56685181 119.34458496 261.56685181 118.91503906 260.52319336 C118.02322252 258.68553813 118.02322252 258.68553813 115.25 257.9375 C114.13625 257.9684375 114.13625 257.9684375 113 258 C113 257.34 113 256.68 113 256 C112.14200239 256.07087043 111.28400478 256.14174086 110.40000725 256.21475887 C102.19660479 256.85251381 94.07020689 257.1397473 85.84423828 257.11352539 C83.99774689 257.11374443 83.99774689 257.11374443 82.11395264 257.1139679 C78.78841613 257.11339698 75.46294431 257.10843601 72.13741922 257.10139394 C68.64344384 257.09507622 65.14946728 257.09455002 61.65548706 257.09336853 C55.0614921 257.09027975 48.46751403 257.08209995 41.87352645 257.07201904 C34.3570231 257.06078106 26.84051887 257.05532822 19.32400918 257.05032361 C3.88266306 257.03991486 -11.55866628 257.0223637 -27 257 C-28.75052329 261.13335791 -30.500435 265.26697448 -32.25024414 269.40063477 C-32.74140968 270.56036049 -33.23257523 271.72008621 -33.73862457 272.91495514 C-37.39555751 281.55509128 -41.02085552 290.20742246 -44.59155273 298.88354492 C-45.46146846 300.99569529 -46.33521131 303.10623973 -47.20898438 305.21679688 C-55.78581211 322.94731218 -55.78581211 322.94731218 -54.5 341.625 C-54.005 342.40875 -53.51 343.1925 -53 344 C-52.34 344 -51.68 344 -51 344 C-51 344.66 -51 345.32 -51 346 C-50.34 346.33 -49.68 346.66 -49 347 C-47.31522656 348.31037934 -45.65191491 349.64843325 -44 351 C-43.45214844 351.3609375 -42.90429688 351.721875 -42.33984375 352.09375 C-39.91834419 353.78822723 -38.16131748 355.1069331 -37.62109375 358.09765625 C-37.625 360.3125 -37.625 360.3125 -38 364 C-45.55184867 365.01701259 -52.96801747 365.14536004 -60.58203125 365.1328125 C-61.87259933 365.13376923 -63.16316742 365.13472595 -64.49284363 365.13571167 C-67.21342173 365.13717763 -69.93396679 365.13507083 -72.65454102 365.13037109 C-76.10693674 365.12469164 -79.55925439 365.12794854 -83.01164722 365.13394356 C-86.34761446 365.13847069 -89.68356182 365.13528004 -93.01953125 365.1328125 C-94.85291801 365.13584885 -94.85291801 365.13584885 -96.7233429 365.13894653 C-104.19751474 365.11883213 -111.56281185 364.74626665 -119 364 C-119.390625 358.04296875 -119.390625 358.04296875 -119 356 C-115.93608236 352.90582145 -112.09656447 351.82269155 -108.0625 350.375 C-91.66886976 344.07360461 -80.08634702 333.27294132 -72.7265625 317.3671875 C-72.14761734 316.12926453 -72.14761734 316.12926453 -71.55697632 314.86633301 C-67.24926511 305.54508833 -63.42324971 296.03719259 -59.625 286.5 C-58.88067909 284.64419565 -58.13571609 282.78864872 -57.39013672 280.93334961 C-55.923162 277.28183867 -54.45860416 273.62937535 -52.99609375 269.97607422 C-50.39890243 263.49403567 -47.7658803 257.02686064 -45.125 250.5625 C-44.26297702 248.44923662 -43.40099709 246.33595568 -42.5390625 244.22265625 C-42.12301758 243.20316895 -41.70697266 242.18368164 -41.27832031 241.13330078 C-39.30614832 236.2992948 -37.33679006 231.46414322 -35.36726379 226.62905884 C-35.08106674 225.92646942 -34.79486969 225.22388 -34.5 224.5 C-34.09694138 223.51051361 -33.69388275 222.52102722 -33.27861023 221.5015564 C-31.02536441 215.97035534 -28.77159528 210.43936973 -26.51586914 204.90917969 C-20.12884813 189.24752737 -13.75977949 173.57865684 -7.42262077 157.89675903 C-6.02637506 154.44173797 -4.62866587 150.98732356 -3.2277832 147.53417969 C-1.83737172 144.10674717 -0.45045218 140.67792113 0.93401909 137.24808502 C1.45306374 135.96388846 1.97331207 134.68017762 2.4948597 133.39699554 C4.96397516 127.31993313 7.33542507 121.34768261 9 115 C9.8709427 113.25811459 10.77994289 111.53536071 11.6953125 109.81640625 C14.90300545 103.39668171 17.32481024 96.63716467 19.875 89.9375 C20.8915672 87.27930978 21.91042256 84.62200053 22.9296875 81.96484375 C23.17974548 81.31164154 23.42980347 80.65843933 23.68743896 79.98544312 C25.99676186 73.96925402 28.39249045 67.98929896 30.80517578 62.01391602 C32.64859582 57.3639323 33.34086261 54.02772347 33 49 C31.58376759 45.74941676 31.58376759 45.74941676 30 43 C30 42.34 30 41.68 30 41 C29.01 41 28.02 41 27 41 C25 37.25 25 37.25 25 35 C22.71785416 30.59871874 20.58017912 27.45231558 17 24 C17 23.34 17 22.68 17 22 C16.443125 21.731875 15.88625 21.46375 15.3125 21.1875 C11.91564453 19.44316881 8.69641842 17.42464538 5.4375 15.4375 C2.29621439 13.563788 2.29621439 13.563788 -1 12 C-1.66 12.33 -2.32 12.66 -3 13 C-4.1577506 9.52674819 -4.06866652 6.63932552 -4 3 C-2.68 2.67 -1.36 2.34 0 2 C0 1.34 0 0.68 0 0 Z M402 17 C402 17.66 402 18.32 402 19 C403.794375 19.7425 403.794375 19.7425 405.625 20.5 C422.16548322 27.93160556 440.3425802 39.19545721 451.875 53.4375 C452.57625 54.283125 453.2775 55.12875 454 56 C454.66 56 455.32 56 456 56 C456.28875 56.598125 456.5775 57.19625 456.875 57.8125 C458.04742026 60.19327792 458.04742026 60.19327792 460 63 C460.66 63 461.32 63 462 63 C462.23460937 63.68449219 462.46921875 64.36898437 462.7109375 65.07421875 C464.27698565 68.6286735 466.40591244 71.64850795 468.625 74.8125 C473.8896838 82.52341016 478.09428971 90.53224793 482 99 C482.54527344 100.17433594 483.09054687 101.34867187 483.65234375 102.55859375 C504.55877567 149.42517523 505.497423 206.89551875 488 255 C476.89825234 283.94633578 459.64518266 313.62734091 433 331 C432.23171875 331.52335937 431.4634375 332.04671875 430.671875 332.5859375 C423.00362179 337.65984157 414.89430082 341.85950098 406.7265625 346.05786133 C405.09749701 346.94679851 403.54413464 347.97057691 402 349 C419.05031124 349.45133177 437.71767896 349.50956118 454 344 C455.25683594 343.60039063 456.51367188 343.20078125 457.80859375 342.7890625 C477.18493781 336.31795082 490.74045051 323.03847872 503 307 C503.73992187 306.03835938 504.47984375 305.07671875 505.2421875 304.0859375 C509.92266659 297.6887429 513.63220136 291.1328432 517.0625 284 C517.45695313 283.18660156 517.85140625 282.37320312 518.2578125 281.53515625 C520.82755238 276.02297506 520.82755238 276.02297506 521 270 C521.66 270 522.32 270 523 270 C535.85560707 233.81875536 540.22914992 196.27724049 537 158 C536.87238281 156.36804688 536.87238281 156.36804688 536.7421875 154.703125 C536.4371684 150.20939224 536.4371684 150.20939224 535 146 C534.89175157 144.3973218 534.81429355 142.79254252 534.75 141.1875 C532.72174436 115.13221599 522.04127257 88.42703692 509 66 C508.34 66 507.68 66 507 66 C506.91234375 65.44183594 506.8246875 64.88367188 506.734375 64.30859375 C501.72519431 48.56164806 480.51392302 34.52321515 466.68359375 27.2578125 C454.97342512 21.59296558 443.09805469 17.69655791 430.015625 18.0625 C428 18 428 18 425 17 C422.13551491 16.90347622 419.30118925 16.86074097 416.4375 16.875 C415.26670898 16.86919922 415.26670898 16.86919922 414.07226562 16.86328125 C409.90330125 16.76516735 409.90330125 16.76516735 406 18 C403.875 17.5625 403.875 17.5625 402 17 Z M266 26 C265.81169832 77.19115701 266.3006472 128.372936 266.83422244 179.56084287 C266.91522151 187.35312045 266.99344059 195.14542241 267.07006836 202.93774414 C267.74708009 272.97310278 267.74708009 272.97310278 269 343 C270.815142 343 272.63035807 342.99093734 274.4453125 342.96484375 C275.77175781 342.95130859 275.77175781 342.95130859 277.125 342.9375 C278.01445313 342.92589844 278.90390625 342.91429687 279.8203125 342.90234375 C282 343 282 343 283 344 C284.62257544 344.0991657 286.24939831 344.13079777 287.875 344.1328125 C288.85984375 344.13410156 289.8446875 344.13539063 290.859375 344.13671875 C291.89578125 344.13285156 292.9321875 344.12898438 294 344.125 C295.03640625 344.12886719 296.0728125 344.13273437 297.140625 344.13671875 C298.12546875 344.13542969 299.1103125 344.13414062 300.125 344.1328125 C301.03507812 344.13168457 301.94515625 344.13055664 302.8828125 344.12939453 C304.9852848 344.23560009 304.9852848 344.23560009 306 343 C306 343.33 306 343.66 306 344 C306.7520874 344 307.5041748 344 308.27905273 344 C316.18603516 344 324.09301758 344 332 344 C334.76942582 343.48984261 337.32240103 342.89253299 340 342 C340 342.66 340 343.32 340 344 C341.65 344 343.3 344 345 344 C345 343.34 345 342.68 345 342 C345.96679688 342.17917969 346.93359375 342.35835937 347.9296875 342.54296875 C362.59709095 344.93912872 370.97182361 341.28304281 382.98046875 332.92578125 C389.49094496 328.19764073 395.81204207 323.19672752 401 317 C401 316.34 401 315.68 401 315 C401.66 315 402.32 315 403 315 C438.31959852 275.49381114 445.30203513 214.68331999 443 164 C440.14905163 116.50258713 424.62870001 71.23519164 389.25 38.4375 C378.18446573 28.96160404 367.64805287 25.82798252 353.30102539 25.88647461 C352.35390686 25.88632858 351.40678833 25.88618256 350.43096924 25.8860321 C347.31984111 25.8867253 344.20877385 25.89448985 341.09765625 25.90234375 C338.93289726 25.90421004 336.76813786 25.90563295 334.6033783 25.90663147 C328.92018456 25.91044006 323.2370166 25.92025615 317.55383301 25.93133545 C311.74878284 25.94158527 305.94372849 25.94613673 300.13867188 25.95117188 C288.7591033 25.96187994 277.37955379 25.97893639 266 26 Z M44 78 C43.69932617 78.75692139 43.39865234 79.51384277 43.08886719 80.29370117 C37.64582485 93.98256182 32.17200748 107.65404152 26.5 121.25 C18.21097734 141.15155406 10.28786313 161.20221964 2.30273438 181.22705078 C-0.216438 187.54404279 -2.74131592 193.85874133 -5.26831055 200.17260742 C-6.23386881 202.58530986 -7.19890139 204.99822277 -8.16333008 207.41137695 C-10.25593268 212.64726608 -12.35362942 217.88095993 -14.46484375 223.109375 C-14.84350586 224.0492627 -15.22216797 224.98915039 -15.61230469 225.95751953 C-16.29954587 227.66251434 -16.98880152 229.36669945 -17.68066406 231.06982422 C-19.0031815 234.3544372 -20.19864323 237.55173753 -21 241 C-20.195625 240.814375 -19.39125 240.62875 -18.5625 240.4375 C-17.2940625 240.2209375 -17.2940625 240.2209375 -16 240 C-15.67 240.33 -15.34 240.66 -15 241 C-13.36776544 241.09605864 -11.7313561 241.12187821 -10.09629822 241.12025452 C-8.50396111 241.12231651 -8.50396111 241.12231651 -6.87945557 241.12442017 C-5.70485779 241.12082489 -4.53026001 241.11722961 -3.32006836 241.11352539 C-2.09097244 241.11367142 -0.86187653 241.11381744 0.40446472 241.1139679 C3.78448672 241.11338892 7.16444829 241.10835964 10.54445958 241.10139394 C14.07321194 241.09515988 17.60196503 241.09455656 21.13072205 241.09336853 C27.81723119 241.09025537 34.50372406 241.08204218 41.19022602 241.07201904 C48.80074303 241.06085744 56.4112608 241.05534733 64.02178395 241.05032361 C79.68119874 241.03985956 95.34059727 241.02226041 111 241 C110.53384676 239.58556396 110.06628266 238.17159285 109.59814453 236.7578125 C109.2078154 235.57662842 109.2078154 235.57662842 108.80960083 234.37158203 C107.61320448 230.86695113 106.26082651 227.43322848 104.875 224 C104.61074219 223.33355469 104.34648437 222.66710937 104.07421875 221.98046875 C102.93586039 218.74910334 102.93586039 218.74910334 101 216 C100.35101972 214.21687941 99.73304082 212.42249292 99.125 210.625 C95.42916626 200.04846269 91.05824885 189.73484181 86.79882812 179.37646484 C83.21103611 170.65051035 79.63699862 161.91890636 76.0625 153.1875 C75.67334412 152.23700775 75.28418823 151.2865155 74.88323975 150.30722046 C65.05077143 126.28501979 55.40556429 102.19296068 46 78 C45.34 78 44.68 78 44 78 Z M275 343 C275 343.33 275 343.66 275 344 C276.65 344 278.3 344 280 344 C280 343.67 280 343.34 280 343 C278.35 343 276.7 343 275 343 Z " fill="#FBFBFB" transform="translate(279,322)"/>
<path d="M0 0 C13.42169072 -0.09276503 26.8433049 -0.16379835 40.26525116 -0.20724869 C46.49791301 -0.22810486 52.73035519 -0.25638718 58.96289062 -0.30175781 C64.97996677 -0.34528484 70.99683188 -0.36915193 77.01405334 -0.37950897 C79.30733054 -0.38688795 81.60059645 -0.40129737 83.89378357 -0.42292023 C87.11108169 -0.45204452 90.3275127 -0.45595212 93.54492188 -0.45410156 C94.48863647 -0.46848267 95.43235107 -0.48286377 96.40466309 -0.49768066 C102.66390332 -0.45883786 106.5972796 0.81699659 112 4 C111.34 4.33 110.68 4.66 110 5 C108.33333333 4.33333333 106.66666667 3.66666667 105 3 C100.34898602 2.1923967 95.892083 1.88091741 91.17626953 1.90234375 C90.21084732 1.90453415 90.21084732 1.90453415 89.22592163 1.9067688 C87.83737536 1.9105509 86.4488338 1.91664181 85.06030655 1.92483521 C82.83494354 1.93777842 80.60964145 1.94416278 78.38424683 1.94897461 C72.84211104 1.96224685 67.30003133 1.98608232 61.75793457 2.01037598 C56.34123515 2.03373716 50.92455333 2.05217425 45.5078125 2.0625 C44.37929241 2.06478104 44.37929241 2.06478104 43.22797394 2.06710815 C29.7990623 2.08467762 16.41186874 1.71510948 3 1 C1.83898545 3.32202909 1.87362023 4.645337 1.87159729 7.2308197 C1.86868998 8.1315943 1.86578266 9.03236889 1.86278725 9.96043968 C1.86496443 10.96470308 1.86714161 11.96896648 1.86938477 13.00366211 C1.86818823 14.07808878 1.86699169 15.15251545 1.8657589 16.2595005 C1.86415129 19.95297596 1.87110949 23.64637671 1.87890625 27.33984375 C1.88095471 29.34279893 1.88300307 31.3457541 1.88504535 33.34870929 C1.93445847 73.74361588 2.41445773 114.13754418 2.83422148 154.52987516 C2.9152237 162.34614723 2.99343503 170.16244371 3.07006836 177.97875977 C3.72131629 246.99410303 3.72131629 246.99410303 5 316 C8.01903711 316.80489089 10.61851889 317.10855119 13.75 317.0625 C14.94882812 317.04896484 14.94882812 317.04896484 16.171875 317.03515625 C16.77515625 317.02355469 17.3784375 317.01195312 18 317 C18 317.66 18 318.32 18 319 C19.50240234 318.87431641 19.50240234 318.87431641 21.03515625 318.74609375 C22.37757359 318.64283088 23.72002334 318.53998879 25.0625 318.4375 C26.37347656 318.33308594 27.68445313 318.22867187 29.03515625 318.12109375 C32.92325897 318.00234381 36.19110223 318.33133784 40 319 C40 318.34 40 317.68 40 317 C41.916588 316.97287847 43.8332873 316.95354903 45.75 316.9375 C47.35101562 316.92009766 47.35101562 316.92009766 48.984375 316.90234375 C51.56482577 316.98590757 53.5379126 317.33415247 56 318 C59.83967767 318.25057397 63.31449333 318.22850222 67 317 C67 317.66 67 318.32 67 319 C67.763125 318.67 68.52625 318.34 69.3125 318 C72 317 72 317 75 317 C75 317.66 75 318.32 75 319 C76.65 319 78.3 319 80 319 C80 318.34 80 317.68 80 317 C80.96679688 317.10699219 81.93359375 317.21398437 82.9296875 317.32421875 C99.68050693 318.86662093 110.01608028 313.22755687 123 303 C123.66 303.33 124.32 303.66 125 304 C109.81473745 317.72514116 96.52687398 321.20090633 76.4375 320.78125 C74.30804593 320.76629202 72.17856395 320.75492187 70.04907227 320.74694824 C64.49838553 320.71669408 58.94942721 320.63836692 53.39941406 320.54931641 C47.71443043 320.4668425 42.029162 320.43080636 36.34375 320.390625 C25.22841557 320.30534235 14.11435261 320.16916648 3 320 C1.82693022 317.65386043 1.86537126 316.25259223 1.84851074 313.63690186 C1.84016929 312.71737921 1.83182783 311.79785656 1.8232336 310.85046959 C1.81904698 309.8360158 1.81486036 308.821562 1.81054688 307.77636719 C1.80223374 306.70673044 1.79392061 305.6370937 1.78535557 304.53504372 C1.75861362 300.95567077 1.73877292 297.37629134 1.71875 293.796875 C1.70096378 291.28048356 1.68267979 288.76409559 1.66392517 286.24771118 C1.62471648 280.88282645 1.5881912 275.51793447 1.5541687 270.15301514 C1.4693399 256.80631325 1.37004969 243.45971451 1.26957965 230.11312246 C1.25387267 228.01895976 1.2383642 225.92479567 1.22288704 223.83063126 C1.10909382 208.50333858 0.98427775 193.17702087 0.71484375 177.8515625 C0.70310183 177.17901554 0.6913599 176.50646858 0.67926216 175.81354141 C0.62238533 172.57804479 0.56397469 169.34257747 0.50509644 166.1071167 C-0.49752831 110.75046182 -0.08649809 55.36356455 0 0 Z M10 318 C10 318.33 10 318.66 10 319 C11.65 319 13.3 319 15 319 C15 318.67 15 318.34 15 318 C13.35 318 11.7 318 10 318 Z " fill="#A3A3A3" transform="translate(544,347)"/>
<path d="M0 0 C2.24396756 2.24396756 2.92913182 3.93759458 4.109375 6.87109375 C4.52662842 7.90137695 4.94388184 8.93166016 5.3737793 9.99316406 C5.82793213 11.12979492 6.28208496 12.26642578 6.75 13.4375 C7.23315674 14.6347168 7.71631348 15.83193359 8.21411133 17.06542969 C11.48658104 25.17879249 14.72080221 33.30756676 17.96411133 41.43261719 C18.2468692 42.14091675 18.52962708 42.84921631 18.82095337 43.57897949 C19.40232613 45.03553374 19.98352103 46.49215899 20.56454468 47.94885254 C25.32898136 59.89001179 30.17330739 71.79691096 35.0625 83.6875 C35.3984317 84.50450378 35.7343634 85.32150757 36.08047485 86.16326904 C36.75484915 87.80324639 37.42923163 89.44322036 38.10362244 91.08319092 C38.43423172 91.88718323 38.764841 92.69117554 39.10546875 93.51953125 C39.43378189 94.31788391 39.76209503 95.11623657 40.10035706 95.93878174 C44.68874948 107.10144156 49.23522047 118.28108725 53.7593689 129.46992493 C55.00944537 132.56012152 56.26373801 135.64851383 57.52685547 138.73339844 C58.96110313 142.23664053 60.3874485 145.74300927 61.8125 149.25 C62.23966309 150.28624512 62.66682617 151.32249023 63.10693359 152.39013672 C63.49059082 153.33904785 63.87424805 154.28795898 64.26953125 155.265625 C64.60573486 156.08836914 64.94193848 156.91111328 65.28833008 157.75878906 C66 160 66 160 66 164 C21.45 164 -23.1 164 -69 164 C-67.13798421 158.41395264 -65.26939781 152.95952236 -63.06640625 147.51953125 C-62.79258118 146.83706833 -62.5187561 146.15460541 -62.2366333 145.45146179 C-61.3476987 143.23748347 -60.45512847 141.02499129 -59.5625 138.8125 C-58.93487711 137.25140774 -58.30752106 135.69020818 -57.68041992 134.12890625 C-56.40322855 130.94961005 -55.12484106 127.77079864 -53.84570312 124.59228516 C-52.15594763 120.39105427 -50.47435089 116.18661571 -48.796875 111.98046875 C-42.77520969 96.88348479 -36.70159595 81.8087618 -30.54052734 66.76806641 C-29.10017259 63.24875913 -27.66843678 59.72597539 -26.23699951 56.20303345 C-24.95631084 53.05407119 -23.67119293 49.90692819 -22.38519287 46.76013184 C-21.75654219 45.21941741 -21.12961148 43.67800002 -20.50445557 42.13586426 C-19.63136953 39.98315364 -18.75198667 37.83311929 -17.87109375 35.68359375 C-17.61012405 35.0359758 -17.34915436 34.38835785 -17.08027649 33.72111511 C-15.96129318 31.00673737 -15.0990569 29.0990569 -13 27 C-13.71000065 31.79146638 -15.49116368 35.99830497 -17.32421875 40.4453125 C-17.66208405 41.27531769 -17.99994934 42.10532288 -18.34805298 42.96047974 C-19.07684719 44.74954175 -19.80763017 46.53779464 -20.54019165 48.32531738 C-22.09499408 52.11937443 -23.64019399 55.91731699 -25.18589783 59.71508789 C-25.97615458 61.65652855 -26.76689893 63.5977708 -27.55812073 65.53881836 C-31.18022806 74.42771975 -34.75480464 83.33515915 -38.3125 92.25 C-38.8838407 93.68059456 -39.455211 95.1111773 -40.02661133 96.54174805 C-41.14035189 99.33057846 -42.25366082 102.11958069 -43.36669922 104.90869141 C-45.51995267 110.3036402 -47.67770801 115.69678638 -49.83569336 121.08984375 C-50.84373307 123.60909055 -51.85092049 126.12867264 -52.85766602 128.6484375 C-55.06916705 134.18265943 -57.2862095 139.71440388 -59.5234375 145.23828125 C-59.90322754 146.17873291 -60.28301758 147.11918457 -60.67431641 148.08813477 C-61.36902215 149.8072398 -62.06642306 151.52525928 -62.76708984 153.24194336 C-64.41049282 157.00024075 -64.41049282 157.00024075 -65 161 C-61.85115196 161.92358649 -59.01184423 162.13537559 -55.73553467 162.15821838 C-54.13701157 162.17290161 -54.13701157 162.17290161 -52.50619507 162.18788147 C-51.34238312 162.19363693 -50.17857117 162.1993924 -48.97949219 162.20532227 C-47.74995819 162.21522186 -46.52042419 162.22512146 -45.25363159 162.23532104 C-41.88621246 162.2614878 -38.51881677 162.28335849 -35.1513586 162.30332303 C-31.63060409 162.32521097 -28.10989235 162.35258591 -24.58917236 162.37937927 C-17.92404395 162.42926822 -11.25889174 162.47422112 -4.59371686 162.51740164 C2.99513517 162.56680649 10.58394427 162.62171256 18.17275476 162.67708123 C33.78179835 162.79084297 49.39088134 162.89696842 65 163 C62.03 155.74 59.06 148.48 56 141 C55.34 141 54.68 141 54 141 C53 138 53 138 53 134 C52.39451656 132.13840945 51.70699514 130.30290958 50.97265625 128.48828125 C50.51906738 127.35946533 50.06547852 126.23064941 49.59814453 125.06762695 C49.08648144 123.81582867 48.57459201 122.56412288 48.0625 121.3125 C47.52676799 119.98869245 46.99146063 118.66471299 46.45654297 117.34057617 C41.56167018 105.25702461 36.54194698 93.22435716 31.53271484 81.18789673 C25.00460448 65.49973137 18.64070111 49.75124899 12.37301636 33.95744324 C10.57138991 29.42200979 8.74705404 24.89625029 6.91015625 20.375 C6.43698975 19.20646484 5.96382324 18.03792969 5.47631836 16.83398438 C4.60222416 14.67741158 3.72438116 12.52235281 2.84204102 10.36914062 C2.46362061 9.43263672 2.0852002 8.49613281 1.6953125 7.53125 C1.36547363 6.72236328 1.03563477 5.91347656 0.69580078 5.08007812 C0 3 0 3 0 0 Z " fill="#A1A1A1" transform="translate(325,400)"/>
<path d="M0 0 C0.81735382 -0.00720654 1.63470765 -0.01441309 2.47682977 -0.02183801 C3.37455724 -0.01446372 4.2722847 -0.00708944 5.19721603 0.00050831 C6.1513532 -0.0034661 7.10549037 -0.0074405 8.08854079 -0.01153535 C11.30092038 -0.02119536 14.5128636 -0.00931696 17.72523117 0.00241566 C20.02330312 -0.0000114 22.32137402 -0.00372989 24.61944199 -0.00864697 C30.87892945 -0.01808182 37.1382612 -0.00860306 43.39773655 0.00468516 C49.96000634 0.01599587 56.5222684 0.01189174 63.08454514 0.00993824 C74.12772192 0.0085106 85.17084075 0.02008331 96.2140007 0.03854847 C107.53140241 0.05746688 118.84873274 0.06465931 130.16614914 0.05905628 C142.50776113 0.05296419 154.84934168 0.05324447 167.19095111 0.06454211 C173.71472647 0.07048686 180.23847855 0.07423402 186.76225662 0.07157421 C192.91822358 0.06966857 199.07410074 0.07796716 205.23004723 0.09363461 C207.47151505 0.09782372 209.71299209 0.09876503 211.95446205 0.0959444 C231.39324464 0.07522326 250.5880278 1.02205644 269.69300461 4.78879261 C273.0914599 5.49125166 273.0914599 5.49125166 276.99378586 5.37473011 C276.99378586 6.03473011 276.99378586 6.69473011 276.99378586 7.37473011 C278.14878586 7.58098011 279.30378586 7.78723011 280.49378586 7.99973011 C291.13144139 10.37300453 301.76613715 14.58181731 310.99378586 20.37473011 C310.33378586 20.70473011 309.67378586 21.03473011 308.99378586 21.37473011 C306.32135784 20.25157984 303.73047035 19.06371387 301.11878586 17.81223011 C272.46382585 4.64534392 243.20052335 3.2088672 212.14612961 3.26120472 C209.77926764 3.26148732 207.41240559 3.26132743 205.04554367 3.26076221 C198.66652151 3.26047709 192.28751843 3.26632753 185.90850067 3.27333617 C179.90338314 3.27897963 173.89826626 3.27996188 167.89314663 3.28098805 C156.0113249 3.28316812 144.12951009 3.28979969 132.24769211 3.29929066 C120.71644246 3.30849193 109.1851947 3.31555943 97.65394211 3.31979847 C96.58492906 3.32019255 96.58492906 3.32019255 95.4943198 3.3205946 C91.91847286 3.32189979 88.34262591 3.32316346 84.76677895 3.3244065 C55.17577666 3.33474655 25.58478159 3.35241138 -4.00621414 3.37473011 C-4.00621414 5.02473011 -4.00621414 6.67473011 -4.00621414 8.37473011 C-2.92082352 8.90582386 -1.83543289 9.43691761 -0.71715164 9.98410511 C0.72826825 10.69742921 2.17357475 11.41098312 3.61878586 12.12473011 C4.6880632 12.64680042 4.6880632 12.64680042 5.77894211 13.17941761 C10.08342493 15.31191369 14.05819873 17.61857761 17.99378586 20.37473011 C17.33378586 20.70473011 16.67378586 21.03473011 15.99378586 21.37473011 C15.21003586 20.90035511 14.42628586 20.42598011 13.61878586 19.93723011 C10.93006349 18.03374087 10.93006349 18.03374087 6.99378586 18.37473011 C6.99378586 17.38473011 6.99378586 16.39473011 6.99378586 15.37473011 C6.40210617 15.20457386 5.81042648 15.03441761 5.20081711 14.85910511 C0.46220682 13.40582822 -3.57474578 12.13827605 -7.00621414 8.37473011 C-7.50621414 5.81223011 -7.50621414 5.81223011 -7.00621414 3.37473011 C-4.84426002 0.6252863 -3.46299786 -0.00026973 0 0 Z " fill="#B4B4B4" transform="translate(473.0062141418457,322.62526988983154)"/>
<path d="M0 0 C3.80802445 1.4960096 5.69424557 3.66063151 8 7 C9.04050391 10.14378879 9.12437537 13.05157885 9.12304783 16.34919357 C9.12503888 17.44049379 9.12702993 18.53179401 9.12908131 19.65616393 C9.12471205 21.45381426 9.12471205 21.45381426 9.12025452 23.28778076 C9.12110894 24.56118325 9.12196337 25.83458573 9.12284368 27.14657617 C9.12508248 30.68343956 9.12107574 34.22027275 9.11606562 37.75713229 C9.11175251 41.57032187 9.11320816 45.38350971 9.1139679 49.19670105 C9.11449258 55.80408889 9.11135153 62.41146687 9.10573006 69.01885223 C9.0976076 78.57205576 9.09499907 88.1252545 9.09374207 97.6784611 C9.09155272 113.17740776 9.08489581 128.67634917 9.07543945 144.17529297 C9.0662623 159.23225885 9.05918295 174.2892233 9.05493164 189.34619141 C9.05466892 190.27409614 9.05440619 191.20200087 9.05413551 192.15802392 C9.05283048 196.81298754 9.05156677 201.46795116 9.05032361 206.12291479 C9.03995465 244.74861354 9.02233952 283.37430642 9 322 C8.34 321.67 7.68 321.34 7 321 C7.00222061 320.15332764 7.00444122 319.30665527 7.00672913 318.43432617 C7.02681733 310.43123737 7.04201751 302.42815711 7.05181217 294.42504883 C7.05701707 290.31118692 7.06407098 286.19734595 7.07543945 282.08349609 C7.08635372 278.10885412 7.09229485 274.13423222 7.09487724 270.15957642 C7.09671616 268.64783411 7.10030696 267.13609283 7.10573006 265.62435913 C7.13079331 258.34417448 7.11561181 251.20940384 6 244 C5.85303365 239.59100956 6.0505808 235.40113921 6.50170898 231.01782227 C7.27863313 221.84640569 7.12347683 212.66138088 7.09765625 203.46484375 C7.09578724 201.49377987 7.09436562 199.52271552 7.09336853 197.551651 C7.08957735 192.39904465 7.07977921 187.24646714 7.06866455 182.09387207 C7.0583919 176.83406971 7.05385444 171.57426266 7.04882812 166.31445312 C7.03928921 157.09589105 7.02483886 147.87734719 7.00672913 138.65879822 C6.99955047 134.75557676 7.00286117 130.8526571 7.01586914 126.94946289 C7.03384312 121.22518446 7.04541335 115.50090961 7.05493164 109.77661133 C7.05997357 107.30232317 7.06680692 104.828038 7.07543945 102.35375977 C7.08755163 98.78921782 7.09323749 95.22471499 7.09765625 91.66015625 C7.10281754 90.55277603 7.10797882 89.44539581 7.11329651 88.30445862 C7.11337204 87.27336472 7.11344757 86.24227081 7.11352539 85.17993164 C7.11685631 83.82116661 7.11685631 83.82116661 7.12025452 82.43495178 C7.08993816 80.03382042 7.08993816 80.03382042 6.43040466 77.92625427 C5.91048256 75.59936924 6.36566816 74.27880414 7 72 C7.08908937 70.40294297 7.12786456 68.80266423 7.12939453 67.203125 C7.13412277 65.7814502 7.13412277 65.7814502 7.13894653 64.33105469 C7.1369223 63.31430664 7.13489807 62.29755859 7.1328125 61.25 C7.13376923 60.19973633 7.13472595 59.14947266 7.13571167 58.06738281 C7.13639174 55.84830668 7.13454953 53.62922855 7.13037109 51.41015625 C7.12502044 48.01297539 7.13032198 44.61592674 7.13671875 41.21875 C7.13605794 39.06249971 7.13477671 36.9062495 7.1328125 34.75 C7.13483673 33.73325195 7.13686096 32.71650391 7.13894653 31.66894531 C7.13579437 30.72116211 7.13264221 29.77337891 7.12939453 28.796875 C7.12859894 27.96510742 7.12780334 27.13333984 7.12698364 26.27636719 C7.00318706 24.05713274 6.54390929 22.14589687 6 20 C6.32334611 18.66420953 6.65703997 17.33088967 7 16 C6.64841937 11.24529053 5.96526237 7.87333262 2.375 4.625 C1.59125 4.08875 0.8075 3.5525 0 3 C0 2.01 0 1.02 0 0 Z " fill="#A6A8A9" transform="translate(491,344)"/>
<path d="M0 0 C0.79656006 -0.00443115 1.59312012 -0.0088623 2.41381836 -0.01342773 C3.26468018 -0.00384033 4.11554199 0.00574707 4.9921875 0.015625 C5.88236572 0.02456787 6.77254395 0.03351074 7.68969727 0.04272461 C34.46130262 0.50115064 56.69196202 7.46519503 77.8671875 24.265625 C78.54910156 24.80316406 79.23101563 25.34070313 79.93359375 25.89453125 C106.55490624 47.75140303 119.87663901 85.38221398 126.1796875 118.078125 C126.32680176 118.83947754 126.47391602 119.60083008 126.62548828 120.38525391 C129.21404987 134.87817123 130.18087314 149.24530424 130.07299805 163.94433594 C130.0545987 166.52809482 130.05249053 169.11149438 130.05273438 171.6953125 C129.99845046 198.97769375 129.99845046 198.97769375 126.8671875 204.265625 C126.92048218 202.50641724 126.92048218 202.50641724 126.97485352 200.71166992 C127.10752713 196.26298035 127.22982929 191.81405054 127.34936523 187.36499023 C127.4019772 185.45768651 127.45721707 183.55045304 127.51538086 181.64331055 C129.6220287 155.82359509 129.6220287 155.82359509 124.8671875 131.265625 C124.75893907 129.6629468 124.68148105 128.05816752 124.6171875 126.453125 C122.72225453 102.11052449 113.26194809 75.65693862 100.6796875 54.796875 C99.8671875 53.265625 99.8671875 53.265625 99.8671875 51.265625 C99.2071875 51.265625 98.5471875 51.265625 97.8671875 51.265625 C97.05701172 49.73421875 97.05701172 49.73421875 96.23046875 48.171875 C93.9647234 44.21204928 91.2002003 41.04677999 88.0546875 37.765625 C87.5169873 37.19811523 86.97928711 36.63060547 86.42529297 36.04589844 C85.36991912 34.93474373 84.31176887 33.8262176 83.25048828 32.72070312 C82.15089219 31.56405069 81.07994105 30.38018079 80.01953125 29.1875 C69.27323508 17.42429089 52.7960827 10.43602716 37.83984375 6.125 C34.81872169 5.25161386 31.84451832 4.27729628 28.8671875 3.265625 C28.5371875 3.925625 28.2071875 4.585625 27.8671875 5.265625 C27.8671875 4.605625 27.8671875 3.945625 27.8671875 3.265625 C26.81917969 3.39130859 26.81917969 3.39130859 25.75 3.51953125 C24.38488281 3.67228516 24.38488281 3.67228516 22.9921875 3.828125 C22.08726562 3.93253906 21.18234375 4.03695313 20.25 4.14453125 C17.8671875 4.265625 17.8671875 4.265625 15.8671875 3.265625 C13.21044942 3.16733436 10.585839 3.12660837 7.9296875 3.140625 C7.20072266 3.13675781 6.47175781 3.13289063 5.72070312 3.12890625 C2.50861014 3.1347946 -0.0649569 3.24300647 -3.1328125 4.265625 C-5.8203125 3.328125 -5.8203125 3.328125 -8.1328125 2.265625 C-5.29659323 0.66423851 -3.25184857 0.01044411 0 0 Z " fill="#A3A3A3" transform="translate(688.1328125,336.734375)"/>
<path d="M0 0 C1.34985864 4.04957592 0.20322028 5.53349481 -1.45703125 9.42578125 C-1.72005539 10.05099167 -1.98307953 10.67620209 -2.2540741 11.32035828 C-3.09794293 13.32166477 -3.95466766 15.31714397 -4.8125 17.3125 C-5.65707468 19.29813102 -6.49892071 21.28488146 -7.33879089 23.27250671 C-8.10617707 25.08518317 -8.88066294 26.89484915 -9.65551758 28.7043457 C-12.85285643 36.54180297 -14.8513279 43.52595757 -11.5 51.625 C-11.005 52.40875 -10.51 53.1925 -10 54 C-9.34 54 -8.68 54 -8 54 C-8 54.66 -8 55.32 -8 56 C-7.34 56.33 -6.68 56.66 -6 57 C-4.31522656 58.31037934 -2.65191491 59.64843325 -1 61 C-0.45214844 61.3609375 0.09570312 61.721875 0.66015625 62.09375 C3.08165581 63.78822723 4.83868252 65.1069331 5.37890625 68.09765625 C5.375 70.3125 5.375 70.3125 5 74 C-2.55184867 75.01701259 -9.96801747 75.14536004 -17.58203125 75.1328125 C-18.87259933 75.13376923 -20.16316742 75.13472595 -21.49284363 75.13571167 C-24.21342173 75.13717763 -26.93396679 75.13507083 -29.65454102 75.13037109 C-33.10693674 75.12469164 -36.55925439 75.12794854 -40.01164722 75.13394356 C-43.34761446 75.13847069 -46.68356182 75.13528004 -50.01953125 75.1328125 C-51.85291801 75.13584885 -51.85291801 75.13584885 -53.7233429 75.13894653 C-61.19751474 75.11883213 -68.56281185 74.74626665 -76 74 C-76.390625 68.04296875 -76.390625 68.04296875 -76 66 C-72.92342176 62.88515587 -68.90616937 61.71597174 -64.875 60.25 C-58.19338529 57.71944333 -52.61715092 54.46728708 -47 50 C-46.34 50.33 -45.68 50.66 -45 51 C-53.47195375 58.2586863 -62.58527239 62.2664184 -73 66 C-73.33 68.31 -73.66 70.62 -74 73 C-48.59 73 -23.18 73 3 73 C2.78737592 66.33947803 2.78737592 66.33947803 -0.07421875 64.03125 C-0.93660156 63.5259375 -1.79898438 63.020625 -2.6875 62.5 C-8.64503887 58.69876633 -14.2524139 54.16510299 -16 47 C-16.47905933 40.35123723 -15.11735822 35.75851783 -12.5 29.6875 C-11.96729492 28.40601074 -11.96729492 28.40601074 -11.42382812 27.09863281 C-10.29571744 24.39334804 -9.14826423 21.69678331 -8 19 C-7.22787031 17.15809498 -6.45702338 15.31565167 -5.6875 13.47265625 C-3.80644923 8.97540767 -1.90801723 4.48587029 0 0 Z " fill="#ACACAC" transform="translate(236,612)"/>
<path d="M0 0 C0.33 0 0.66 0 1 0 C1.33 17.16 1.66 34.32 2 52 C5.26881973 52.81720493 7.46999069 53.11073543 10.75 53.0625 C11.94882812 53.04896484 11.94882812 53.04896484 13.171875 53.03515625 C13.77515625 53.02355469 14.3784375 53.01195312 15 53 C15 53.66 15 54.32 15 55 C16.00160156 54.91621094 17.00320313 54.83242188 18.03515625 54.74609375 C19.37757359 54.64283088 20.72002334 54.53998879 22.0625 54.4375 C23.37347656 54.33308594 24.68445313 54.22867188 26.03515625 54.12109375 C29.92325897 54.00234381 33.19110223 54.33133784 37 55 C37 54.34 37 53.68 37 53 C38.916588 52.97287847 40.8332873 52.95354903 42.75 52.9375 C44.35101562 52.92009766 44.35101562 52.92009766 45.984375 52.90234375 C48.56482577 52.98590757 50.5379126 53.33415247 53 54 C56.83967767 54.25057397 60.31449333 54.22850222 64 53 C64 53.66 64 54.32 64 55 C65.1446875 54.505 65.1446875 54.505 66.3125 54 C69 53 69 53 72 53 C72 53.66 72 54.32 72 55 C73.65 55 75.3 55 77 55 C77 54.34 77 53.68 77 53 C77.96679688 53.10699219 78.93359375 53.21398437 79.9296875 53.32421875 C96.68050693 54.86662093 107.01608028 49.22755687 120 39 C120.66 39.33 121.32 39.66 122 40 C106.81473745 53.72514116 93.52687398 57.20090633 73.4375 56.78125 C71.30804593 56.76629202 69.17856395 56.75492187 67.04907227 56.74694824 C61.49838553 56.71669408 55.94942721 56.63836692 50.39941406 56.54931641 C44.71443043 56.4668425 39.029162 56.43080636 33.34375 56.390625 C22.22841557 56.30534235 11.11435261 56.16916648 0 56 C-1.45075174 53.09849653 -1.12986182 50.56384916 -1.1328125 47.32421875 C-1.13413177 46.65050232 -1.13545105 45.97678589 -1.1368103 45.28265381 C-1.13873118 43.08422286 -1.13238454 40.88591805 -1.125 38.6875 C-1.12411377 37.94501007 -1.12322754 37.20252014 -1.12231445 36.43753052 C-1.10519299 24.26927124 -0.77379366 12.14579694 0 0 Z M7 54 C7 54.33 7 54.66 7 55 C8.65 55 10.3 55 12 55 C12 54.67 12 54.34 12 54 C10.35 54 8.7 54 7 54 Z " fill="#A6A7A6" transform="translate(547,611)"/>
<path d="M0 0 C0.85830917 0.16233124 1.71661835 0.32466248 2.60093689 0.49191284 C5.92346883 0.98856023 9.02837025 1.12694627 12.38500977 1.12939453 C13.62972549 1.13254669 14.87444122 1.13569885 16.15687561 1.13894653 C17.50171952 1.13715666 18.8465631 1.13510568 20.19140625 1.1328125 C21.58332842 1.13348692 22.97525047 1.13445809 24.36717224 1.13571167 C27.27628711 1.13718166 30.18537115 1.13505626 33.09448242 1.13037109 C36.81557189 1.1246689 40.53658929 1.12796034 44.25767612 1.13394356 C47.12904907 1.1375635 50.00040503 1.13640408 52.87177849 1.13381577 C54.2436518 1.13315074 55.61552667 1.13396003 56.98739815 1.13629532 C58.90639337 1.13884595 60.82539403 1.13426659 62.74438477 1.12939453 C63.83437271 1.12859894 64.92436066 1.12780334 66.04737854 1.12698364 C68.80952132 1.00819193 71.31232404 0.62687873 74 0 C74 0.66 74 1.32 74 2 C74.66 2 75.32 2 76 2 C76.4031543 2.98806641 76.80630859 3.97613281 77.22167969 4.99414062 C78.73188035 8.69302306 80.2462043 12.390206 81.76171875 16.08691406 C82.41452103 17.68086113 83.06623483 19.27525447 83.71679688 20.87011719 C84.65722795 23.17503876 85.60168599 25.4782761 86.546875 27.78125 C86.83246277 28.48366821 87.11805054 29.18608643 87.41229248 29.90979004 C89.1375264 34.10044168 91.03178371 38.14025491 93.14874268 42.14831543 C94.03782247 44.08227275 94.51194458 45.93291865 95 48 C95.37125 48.845625 95.7425 49.69125 96.125 50.5625 C97 53 97 53 96 56 C89.79877115 42.09458437 83.96821416 28.08405283 78.49291992 13.87988281 C78.05052979 12.73616211 77.60813965 11.59244141 77.15234375 10.4140625 C76.76038818 9.3926416 76.36843262 8.3712207 75.96459961 7.31884766 C75.20545237 5.07835602 75.20545237 5.07835602 74 4 C71.62798453 3.87513046 69.28359657 3.81399948 66.90991211 3.79467773 C65.79778603 3.77982834 65.79778603 3.77982834 64.66319275 3.76467896 C62.20127607 3.73297534 59.73934007 3.70827174 57.27734375 3.68359375 C55.57482895 3.66303186 53.87231935 3.6420356 52.16981506 3.62062073 C47.68012691 3.56532101 43.19039208 3.51594672 38.70062256 3.46777344 C34.12263822 3.41761594 29.54472197 3.36189992 24.96679688 3.30664062 C15.9779227 3.19896249 6.9889895 3.09753912 -2 3 C-0.82104773 8.5082049 -0.82104773 8.5082049 3.15234375 12.29296875 C4.40224666 12.94755436 5.6646466 13.57874403 6.9375 14.1875 C14.60768294 18.01869005 14.60768294 18.01869005 17 22 C12.98544673 20.06706695 9.23844475 17.75514924 5.4375 15.4375 C2.29621439 13.563788 2.29621439 13.563788 -1 12 C-1.99 12.495 -1.99 12.495 -3 13 C-4.1577506 9.52674819 -4.06866652 6.63932552 -4 3 C-2.68 2.67 -1.36 2.34 0 2 C0 1.34 0 0.68 0 0 Z " fill="#ABACAC" transform="translate(279,322)"/>
<path d="M0 0 C3.80802445 1.4960096 5.69424557 3.66063151 8 7 C9.39346524 10.84110533 9.13302696 14.85929626 9.11352539 18.88964844 C9.11367142 19.68027176 9.11381744 20.47089508 9.1139679 21.28547668 C9.11327236 23.89347089 9.10549675 26.5013933 9.09765625 29.109375 C9.0957908 30.91969768 9.09436749 32.73002087 9.09336853 34.54034424 C9.08955339 39.30130409 9.07973165 44.06223337 9.06866455 48.82318115 C9.05842887 53.68289781 9.05386629 58.54261942 9.04882812 63.40234375 C9.0381085 72.93490926 9.0210441 82.46745208 9 92 C8.34 91.67 7.68 91.34 7 91 C7.01160156 90.25234375 7.02320313 89.5046875 7.03515625 88.734375 C7.04417969 87.74953125 7.05320312 86.7646875 7.0625 85.75 C7.07410156 84.77546875 7.08570313 83.8009375 7.09765625 82.796875 C7.10825789 80.08667806 7.10825789 80.08667806 6.43359375 77.890625 C6 76 6 76 6.46481323 74.18164062 C7.05443801 71.77808836 7.12702851 69.67673011 7.12939453 67.203125 C7.13412277 65.7814502 7.13412277 65.7814502 7.13894653 64.33105469 C7.1369223 63.31430664 7.13489807 62.29755859 7.1328125 61.25 C7.13376923 60.19973633 7.13472595 59.14947266 7.13571167 58.06738281 C7.13639174 55.84830668 7.13454953 53.62922855 7.13037109 51.41015625 C7.12502044 48.01297539 7.13032198 44.61592674 7.13671875 41.21875 C7.13605794 39.06249971 7.13477671 36.9062495 7.1328125 34.75 C7.13483673 33.73325195 7.13686096 32.71650391 7.13894653 31.66894531 C7.13579437 30.72116211 7.13264221 29.77337891 7.12939453 28.796875 C7.12859894 27.96510742 7.12780334 27.13333984 7.12698364 26.27636719 C7.00318706 24.05713274 6.54390929 22.14589687 6 20 C6.32334611 18.66420953 6.65703997 17.33088967 7 16 C6.64841937 11.24529053 5.96526237 7.87333262 2.375 4.625 C1.59125 4.08875 0.8075 3.5525 0 3 C0 2.01 0 1.02 0 0 Z " fill="#B0B1B2" transform="translate(491,344)"/>
<path d="M0 0 C0.33 0 0.66 0 1 0 C0.88825081 32.23964155 -14.55731853 70.04334898 -36 94 C-36.99 94.495 -36.99 94.495 -38 95 C-36.59735971 91.74045524 -34.60814853 89.15381428 -32.41943359 86.38037109 C-27.13617137 79.61408789 -23.041027 72.63767738 -19.375 64.875 C-18.94960938 63.97467041 -18.52421875 63.07434082 -18.0859375 62.14672852 C-16.22298762 58.08033482 -14.76242984 54.4291219 -14 50 C-13.34 50 -12.68 50 -12 50 C-11.84144531 49.34257813 -11.68289063 48.68515625 -11.51953125 48.0078125 C-10.36076788 43.28313093 -9.17850031 38.57230933 -7.828125 33.8984375 C-4.59791294 22.69734308 -2.1408882 11.45793794 0 0 Z " fill="#ABABAC" transform="translate(814,542)"/>
<path d="M0 0 C0.33 0 0.66 0 1 0 C2.59447997 11.93556335 3.29416811 23.63913166 3.20581055 35.67871094 C3.1874112 38.26246982 3.18530303 40.84586938 3.18554688 43.4296875 C3.13126296 70.71206875 3.13126296 70.71206875 0 76 C0.03552979 74.82719482 0.07105957 73.65438965 0.10766602 72.44604492 C0.24033963 67.99735535 0.36264179 63.54842554 0.48217773 59.09936523 C0.5347897 57.19206151 0.59002957 55.28482804 0.64819336 53.37768555 C2.7548412 27.55797009 2.7548412 27.55797009 -2 3 C-1.34 2.01 -0.68 1.02 0 0 Z " fill="#A7A7A7" transform="translate(815,465)"/>
<path d="M0 0 C0.33 0 0.66 0 1 0 C1.33 17.16 1.66 34.32 2 52 C5.26881973 52.81720493 7.46999069 53.11073543 10.75 53.0625 C11.94882812 53.04896484 11.94882812 53.04896484 13.171875 53.03515625 C13.77515625 53.02355469 14.3784375 53.01195312 15 53 C14.67 53.99 14.34 54.98 14 56 C9.38 56 4.76 56 0 56 C-1.45075174 53.09849653 -1.12986182 50.56384916 -1.1328125 47.32421875 C-1.13413177 46.65050232 -1.13545105 45.97678589 -1.1368103 45.28265381 C-1.13873118 43.08422286 -1.13238454 40.88591805 -1.125 38.6875 C-1.12411377 37.94501007 -1.12322754 37.20252014 -1.12231445 36.43753052 C-1.10519299 24.26927124 -0.77379366 12.14579694 0 0 Z M7 54 C7 54.33 7 54.66 7 55 C8.65 55 10.3 55 12 55 C12 54.67 12 54.34 12 54 C10.35 54 8.7 54 7 54 Z " fill="#C0C0C0" transform="translate(547,611)"/>
<path d="M0 0 C3.29832072 1.09944024 3.60461845 1.47949506 5.3828125 4.25390625 C5.82318848 4.93477295 6.26356445 5.61563965 6.71728516 6.31713867 C7.18183105 7.05810791 7.64637695 7.79907715 8.125 8.5625 C8.61145996 9.33118408 9.09791992 10.09986816 9.59912109 10.8918457 C11.08064315 13.25255261 12.54355762 15.62375207 14 18 C14.61681641 18.99821777 14.61681641 18.99821777 15.24609375 20.01660156 C23.23095618 33.07601883 34.95444367 52.25167942 34 68 C32.32025205 65.48037807 31.51496734 63.86651137 30.625 61.0703125 C23.78380378 40.23012063 14.79424952 20.65407799 0.99609375 3.453125 C0 2 0 2 0 0 Z " fill="#A4A4A4" transform="translate(738,384)"/>
<path d="M0 0 C0.79792969 -0.00394775 1.59585938 -0.00789551 2.41796875 -0.01196289 C3.26746094 -0.00285889 4.11695313 0.00624512 4.9921875 0.015625 C5.87003906 0.02021729 6.74789062 0.02480957 7.65234375 0.02954102 C17.55978835 0.16368952 28.29505446 0.49868029 37.8671875 3.265625 C37.8671875 3.925625 37.8671875 4.585625 37.8671875 5.265625 C33.4121875 4.275625 33.4121875 4.275625 28.8671875 3.265625 C28.5371875 3.925625 28.2071875 4.585625 27.8671875 5.265625 C27.8671875 4.605625 27.8671875 3.945625 27.8671875 3.265625 C26.81917969 3.39130859 26.81917969 3.39130859 25.75 3.51953125 C24.38488281 3.67228516 24.38488281 3.67228516 22.9921875 3.828125 C22.08726562 3.93253906 21.18234375 4.03695313 20.25 4.14453125 C17.8671875 4.265625 17.8671875 4.265625 15.8671875 3.265625 C13.21044942 3.16733436 10.585839 3.12660837 7.9296875 3.140625 C7.20072266 3.13675781 6.47175781 3.13289063 5.72070312 3.12890625 C2.50861014 3.1347946 -0.0649569 3.24300647 -3.1328125 4.265625 C-5.8203125 3.328125 -5.8203125 3.328125 -8.1328125 2.265625 C-5.29659323 0.66423851 -3.25184857 0.01044411 0 0 Z " fill="#C0C0C0" transform="translate(688.1328125,336.734375)"/>
<path d="M0 0 C7.42848877 4.15121431 12.62241516 9.53729537 18 16 C18.48984375 16.58281738 18.9796875 17.16563477 19.484375 17.76611328 C34.23401831 35.35594088 34.23401831 35.35594088 37 42 C36.505 42.99 36.505 42.99 36 44 C35.39414062 43.14019531 34.78828125 42.28039062 34.1640625 41.39453125 C31.46605279 37.57942793 28.7370394 33.78716489 26 30 C25.59426758 29.43458496 25.18853516 28.86916992 24.77050781 28.28662109 C14.13384481 13.20551734 14.13384481 13.20551734 0 2 C0 1.34 0 0.68 0 0 Z " fill="#A4A4A4" transform="translate(812,363)"/>
<path d="M0 0 C0.66 0.33 1.32 0.66 2 1 C-0.31 2.32 -2.62 3.64 -5 5 C5.56 5 16.12 5 27 5 C27 5.33 27 5.66 27 6 C21.65677385 6.7331282 16.39424611 7.18393686 11 7.31640625 C10.2788501 7.33718735 9.5577002 7.35796844 8.81469727 7.37937927 C6.54321493 7.44401934 4.27163138 7.50335551 2 7.5625 C0.44660471 7.6057669 -1.10678087 7.64938358 -2.66015625 7.69335938 C-6.44000424 7.79961096 -10.21995252 7.9011108 -14 8 C-14 7.34 -14 6.68 -14 6 C-11.71220962 4.96959833 -9.42048864 3.95047982 -7.125 2.9375 C-6.47402344 2.64294922 -5.82304688 2.34839844 -5.15234375 2.04492188 C-3.45989459 1.30338487 -1.73131425 0.64560999 0 0 Z " fill="#AFAFAF" transform="translate(689,665)"/>
<path d="M0 0 C0 3 0 3 -1.16162109 4.50219727 C-1.95947021 5.27648071 -1.95947021 5.27648071 -2.7734375 6.06640625 C-3.6396875 6.9181543 -3.6396875 6.9181543 -4.5234375 7.78710938 C-5.13445313 8.37298828 -5.74546875 8.95886719 -6.375 9.5625 C-6.97828125 10.15224609 -7.5815625 10.74199219 -8.203125 11.34960938 C-9.32527065 12.44557163 -10.45046098 13.53843093 -11.57958984 14.62719727 C-12.73095026 15.73996791 -13.86777005 16.86777005 -15 18 C-22.5450706 24.1079143 -30.63423143 30.19850911 -40 33 C-37.79784848 30.50215323 -35.30191542 28.86859036 -32.46948242 27.14648438 C-20.27691782 19.72971676 -9.83521545 10.30355904 0 0 Z " fill="#A5A6A6" transform="translate(735,630)"/>
<path d="M0 0 C4.75968222 2.18064736 8.18666552 5.46889166 12 9 C12.80050781 9.73476563 13.60101562 10.46953125 14.42578125 11.2265625 C21.02853361 17.53152354 26.05818165 24.38434757 31 32 C30.67 32.66 30.34 33.32 30 34 C29.58492187 33.37996094 29.16984375 32.75992188 28.7421875 32.12109375 C21.02028793 21.02288244 11.74887795 10.66121841 1.2578125 2.1015625 C0.84273437 1.73804688 0.42765625 1.37453125 0 1 C0 0.67 0 0.34 0 0 Z " fill="#A8A8A8" transform="translate(664,357)"/>
<path d="M0 0 C0.66 0.33 1.32 0.66 2 1 C-6.41660275 8.60731403 -18.11036224 17.5 -30 17.5 C-32.375 17.28125 -32.375 17.28125 -34 17 C-34 16.67 -34 16.34 -34 16 C-32.67548828 15.77957031 -32.67548828 15.77957031 -31.32421875 15.5546875 C-18.70456838 13.19612771 -9.78050201 8.16249304 0 0 Z " fill="#A5A5A6" transform="translate(667,650)"/>
<path d="M0 0 C0.99 0 1.98 0 3 0 C3 0.66 3 1.32 3 2 C3.763125 1.67 4.52625 1.34 5.3125 1 C8 0 8 0 11 0 C11 0.66 11 1.32 11 2 C12.65 2 14.3 2 16 2 C16 1.34 16 0.68 16 0 C22.93 0.495 22.93 0.495 30 1 C30 1.33 30 1.66 30 2 C26.28111134 2.8632601 22.85703512 3.11721556 19.04296875 3.09765625 C17.93115234 3.09443359 16.81933594 3.09121094 15.67382812 3.08789062 C14.52333984 3.07951172 13.37285156 3.07113281 12.1875 3.0625 C10.43276367 3.05573242 10.43276367 3.05573242 8.64257812 3.04882812 C5.76166642 3.0370693 2.88085956 3.02063426 0 3 C0 2.01 0 1.02 0 0 Z " fill="#C6C7C6" transform="translate(608,664)"/>
<path d="M0 0 C0.33 0 0.66 0 1 0 C2.6190114 11.56054418 3.17183899 22.37662405 2 34 C1.67 34 1.34 34 1 34 C0.93941406 32.74445313 0.87882813 31.48890625 0.81640625 30.1953125 C1.04303955 16.18393887 1.04303955 16.18393887 -2 3 C-1.34 2.01 -0.68 1.02 0 0 Z " fill="#C0C0C0" transform="translate(815,465)"/>
<path d="M0 0 C0 8.67734861 -12.26152908 18.30754905 -18.0625 24.125 C-18.701875 24.74375 -19.34125 25.3625 -20 26 C-20.66 25.67 -21.32 25.34 -22 25 C-21.28972656 24.30132813 -20.57945312 23.60265625 -19.84765625 22.8828125 C-18.92855469 21.97273437 -18.00945313 21.06265625 -17.0625 20.125 C-15.68771484 18.76761719 -15.68771484 18.76761719 -14.28515625 17.3828125 C-11.98812373 15.22317745 -11.98812373 15.22317745 -11 13 C-10.34 13 -9.68 13 -9 13 C-8.74476563 12.43796875 -8.48953125 11.8759375 -8.2265625 11.296875 C-6.84307219 8.70613518 -5.20061417 6.54892155 -3.375 4.25 C-2.74335937 3.45078125 -2.11171875 2.6515625 -1.4609375 1.828125 C-0.97882812 1.22484375 -0.49671875 0.6215625 0 0 Z " fill="#ABABAC" transform="translate(691,624)"/>
<path d="M0 0 C-4.2943455 2.57868689 -8.5249954 2.41958865 -13.41796875 2.65625 C-14.27003906 2.7696875 -15.12210938 2.883125 -16 3 C-16.33 3.66 -16.66 4.32 -17 5 C-17 4.34 -17 3.68 -17 3 C-20.63 3 -24.26 3 -28 3 C-28 2.67 -28 2.34 -28 2 C-24.64637391 1.6610769 -21.29202668 1.32988036 -17.9375 1 C-16.99455078 0.90460937 -16.05160156 0.80921875 -15.08007812 0.7109375 C-10.02487778 0.21774722 -5.07896392 -0.11270932 0 0 Z " fill="#A7A7A6" transform="translate(734,682)"/>
<path d="M0 0 C0 3 0 3 -1.16162109 4.50219727 C-1.69352051 5.01838623 -2.22541992 5.5345752 -2.7734375 6.06640625 C-3.3509375 6.63423828 -3.9284375 7.20207031 -4.5234375 7.78710938 C-5.13445313 8.37298828 -5.74546875 8.95886719 -6.375 9.5625 C-7.27992188 10.44711914 -7.27992188 10.44711914 -8.203125 11.34960938 C-9.32527065 12.44557163 -10.45046098 13.53843093 -11.57958984 14.62719727 C-12.73095026 15.73996791 -13.86777005 16.86777005 -15 18 C-15 14 -15 14 -13.49609375 12.32421875 C-12.81675781 11.78410156 -12.13742187 11.24398437 -11.4375 10.6875 C-7.3743021 7.34133702 -3.66784269 3.77100077 0 0 Z " fill="#B2B1B2" transform="translate(735,630)"/>
<path d="M0 0 C0.56203125 0.16371094 1.1240625 0.32742188 1.703125 0.49609375 C4.13059056 1.02864997 6.26889681 1.09898681 8.75 1.0625 C9.94882812 1.04896484 9.94882812 1.04896484 11.171875 1.03515625 C12.07679688 1.01775391 12.07679688 1.01775391 13 1 C12.67 1.99 12.34 2.98 12 4 C7.38 4 2.76 4 -2 4 C-2 3.34 -2 2.68 -2 2 C-1.34 2 -0.68 2 0 2 C0 1.34 0 0.68 0 0 Z M5 2 C5 2.33 5 2.66 5 3 C6.65 3 8.3 3 10 3 C10 2.67 10 2.34 10 2 C8.35 2 6.7 2 5 2 Z " fill="#CACACA" transform="translate(549,663)"/>
<path d="M0 0 C3.875 3.75 3.875 3.75 5 6 C5.99 6 6.98 6 8 6 C8.33 4.68 8.66 3.36 9 2 C9 4.31 9 6.62 9 9 C7.1875 9.6875 7.1875 9.6875 5 10 C2.468186 8.14982823 1.16929312 5.87826 0 3 C0 2.01 0 1.02 0 0 Z " fill="#CECECE" transform="translate(490,658)"/>
<path d="M0 0 C0.33 0 0.66 0 1 0 C1.16435547 1.03060547 1.16435547 1.03060547 1.33203125 2.08203125 C1.49058594 2.98308594 1.64914063 3.88414062 1.8125 4.8125 C1.96332031 5.70582031 2.11414063 6.59914063 2.26953125 7.51953125 C3.0657049 10.22311559 3.91690116 11.17933881 6 13 C6.33 13.66 6.66 14.32 7 15 C7.66 15.33 8.32 15.66 9 16 C5 16 5 16 3.55078125 14.6796875 C0.90046704 10.81708445 -0.78102148 7.81752741 -1 3 C-0.67 2.01 -0.34 1.02 0 0 Z " fill="#C0C0C0" transform="translate(221,653)"/>
<path d="M0 0 C3.81311305 1.4980087 5.72483551 3.62648024 8 7 C9.01919799 9.98479412 9.33700681 11.26893404 8.0078125 14.15234375 C7.50894531 15.06693359 7.50894531 15.06693359 7 16 C6.91363281 15.39671875 6.82726562 14.7934375 6.73828125 14.171875 C5.83904547 8.75644792 5.83904547 8.75644792 2.375 4.625 C1.59125 4.08875 0.8075 3.5525 0 3 C0 2.01 0 1.02 0 0 Z " fill="#B9B9BA" transform="translate(491,344)"/>
<path d="M0 0 C10.30243337 5.75724218 10.30243337 5.75724218 11.671875 10.16015625 C11.78015625 10.76730469 11.8884375 11.37445313 12 12 C11.55269531 11.61328125 11.10539063 11.2265625 10.64453125 10.828125 C10.03996094 10.30734375 9.43539062 9.7865625 8.8125 9.25 C8.17828125 8.7034375 7.5440625 8.156875 6.890625 7.59375 C5.31779514 6.26789342 3.69559234 5.00087924 2.0625 3.75 C1.381875 3.1725 0.70125 2.595 0 2 C0 1.34 0 0.68 0 0 Z " fill="#ACACAD" transform="translate(812,363)"/>
<path d="M0 0 C5.40489519 1.52012677 8.98492628 5.27385218 13 9 C9.02348017 9 7.85083826 7.55718178 4.8125 5.0625 C3.91144531 4.33160156 3.01039063 3.60070312 2.08203125 2.84765625 C1.39496094 2.23792969 0.70789063 1.62820313 0 1 C0 0.67 0 0.34 0 0 Z " fill="#A2A2A3" transform="translate(799,353)"/>
<path d="M0 0 C1.98 0.99 1.98 0.99 4 2 C4 2.66 4 3.32 4 4 C4.66 4 5.32 4 6 4 C7.625 6 7.625 6 9 8 C8.67 8.66 8.34 9.32 8 10 C6.66070495 8.71451591 5.32871357 7.42141845 4 6.125 C2.88625 5.04605469 2.88625 5.04605469 1.75 3.9453125 C0 2 0 2 0 0 Z " fill="#B0B0B0" transform="translate(729,374)"/>
<path d="M0 0 C4.29 0.66 8.58 1.32 13 2 C13 2.33 13 2.66 13 3 C8.71 3 4.42 3 0 3 C0 2.01 0 1.02 0 0 Z " fill="#ADADAD" transform="translate(260,561)"/>
<path d="M0 0 C3.34998521 1.11666174 3.79340222 1.74694925 5.6875 4.5625 C6.12449219 5.20316406 6.56148438 5.84382813 7.01171875 6.50390625 C7.33785156 6.99761719 7.66398437 7.49132812 8 8 C7.67 8.66 7.34 9.32 7 10 C5.82739389 8.71372289 4.6620717 7.42080217 3.5 6.125 C2.8503125 5.40570313 2.200625 4.68640625 1.53125 3.9453125 C0 2 0 2 0 0 Z " fill="#AEAFAF" transform="translate(296,344)"/>
<path d="M0 0 C4.39158329 1.4638611 4.87947433 3.97831338 7 8 C6.01 8.495 6.01 8.495 5 9 C4.16094435 7.87926138 3.32892169 6.75325453 2.5 5.625 C2.0359375 4.99851562 1.571875 4.37203125 1.09375 3.7265625 C0 2 0 2 0 0 Z " fill="#B5B5B5" transform="translate(738,384)"/>
<path d="M0 0 C4.12751449 0.60698743 7.3321148 2.03810791 11 4 C8 5 8 5 4.375 3.6875 C1 2 1 2 0 0 Z " fill="#A5A5A5" transform="translate(470,333)"/>
<path d="M0 0 C2.64 0 5.28 0 8 0 C8 0.33 8 0.66 8 1 C5.36 1 2.72 1 0 1 C0 0.67 0 0.34 0 0 Z " fill="#F9F9F8" transform="translate(568,664)"/>
<path d="M0 0 C1.32 0.66 2.64 1.32 4 2 C2.02 2 0.04 2 -2 2 C-1.34 1.34 -0.68 0.68 0 0 Z " fill="#F6F6F5" transform="translate(724,322)"/>
<path d="M0 0 C1.98 0 3.96 0 6 0 C6 0.33 6 0.66 6 1 C4.02 1 2.04 1 0 1 C0 0.67 0 0.34 0 0 Z " fill="#F8F9F8" transform="translate(601,664)"/>
<path d="M0 0 C4 1 4 1 4 1 Z " fill="#FAFAF9" transform="translate(316,561)"/>
<path d="M0 0 C0.66 0.66 1.32 1.32 2 2 C1.01 2.495 1.01 2.495 0 3 C0 2.01 0 1.02 0 0 Z " fill="#FAF9F9" transform="translate(316,421)"/>
<path d="M0 0 C4 1 4 1 4 1 Z " fill="#F9F8F8" transform="translate(599,349)"/>
<path d="M0 0 C0.99 0 1.98 0 3 0 C2.67 0.66 2.34 1.32 2 2 C1.34 1.34 0.68 0.68 0 0 Z " fill="#FAFAFA" transform="translate(736,347)"/>
<path d="M0 0 C0.66 0.66 1.32 1.32 2 2 C1.01 2.495 1.01 2.495 0 3 C0 2.01 0 1.02 0 0 Z " fill="#F4F4F3" transform="translate(288,340)"/>
<path d="M0 0 C3 1 3 1 3 1 Z " fill="#F5F5F6" transform="translate(728,685)"/>
<path d="M0 0 C3 1 3 1 3 1 Z " fill="#F8F9F8" transform="translate(612,664)"/>
<path d="M0 0 C3 1 3 1 3 1 Z " fill="#FAFAF8" transform="translate(597,664)"/>
<path d="M0 0 C3 1 3 1 3 1 Z " fill="#FAFAF9" transform="translate(577,664)"/>
<path d="M0 0 C3 1 3 1 3 1 Z " fill="#FBFAF9" transform="translate(341,561)"/>
<path d="M0 0 C3 1 3 1 3 1 Z " fill="#FAFBF9" transform="translate(325,561)"/>
<path d="M0 0 C3 1 3 1 3 1 Z " fill="#FAFAF9" transform="translate(309,561)"/>
<path d="M0 0 C3 1 3 1 3 1 Z " fill="#FBFBF9" transform="translate(285,561)"/>
<path d="" fill="#FAFAF9" transform="translate(0,0)"/>
<path d="" fill="#F9F8F7" transform="translate(0,0)"/>
<path d="" fill="#F7FAF9" transform="translate(0,0)"/>
<path d="" fill="#F8F9F9" transform="translate(0,0)"/>
<path d="" fill="#F9F9F8" transform="translate(0,0)"/>
<path d="" fill="#F5F5F4" transform="translate(0,0)"/>
<path d="M0 0 C3 1 3 1 3 1 Z " fill="#F8F7F6" transform="translate(712,341)"/>
<path d="M0 0 C2 1 2 1 2 1 Z " fill="#F6F7F7" transform="translate(689,669)"/>
<path d="M0 0 C2 1 2 1 2 1 Z " fill="#F9FAF9" transform="translate(417,665)"/>
<path d="" fill="#FAFAFA" transform="translate(0,0)"/>
<path d="" fill="#FAFAF9" transform="translate(0,0)"/>
<path d="" fill="#F9F9F8" transform="translate(0,0)"/>
<path d="M0 0 C2 1 2 1 2 1 Z " fill="#FAF9F8" transform="translate(412,623)"/>
<path d="M0 0 C2 1 2 1 2 1 Z " fill="#FAF9FA" transform="translate(400,593)"/>
<path d="" fill="#F3F2F1" transform="translate(0,0)"/>
<path d="" fill="#F8F8F8" transform="translate(0,0)"/>
<path d="M0 0 C2 1 2 1 2 1 Z " fill="#F7F8F7" transform="translate(232,571)"/>
<path d="" fill="#FBFBFA" transform="translate(0,0)"/>
<path d="M0 0 C2 1 2 1 2 1 Z " fill="#FBFBF9" transform="translate(372,561)"/>
<path d="M0 0 C2 1 2 1 2 1 Z " fill="#FBFBFB" transform="translate(358,561)"/>
<path d="M0 0 C2 1 2 1 2 1 Z " fill="#FCFBFB" transform="translate(346,561)"/>
<path d="" fill="#FAFAF9" transform="translate(0,0)"/>
<path d="" fill="#FAFAFA" transform="translate(0,0)"/>
<path d="" fill="#FBFBF9" transform="translate(0,0)"/>
<path d="" fill="#F9FAF8" transform="translate(0,0)"/>
<path d="" fill="#FAF8F9" transform="translate(0,0)"/>
<path d="" fill="#F8F8F8" transform="translate(0,0)"/>
<path d="" fill="#F8F9F8" transform="translate(0,0)"/>
<path d="" fill="#F4F4F5" transform="translate(0,0)"/>
<path d="M0 0 C2 1 2 1 2 1 Z " fill="#F6F7F6" transform="translate(275,465)"/>
<path d="" fill="#F9FAF9" transform="translate(0,0)"/>
<path d="" fill="#F9FBFA" transform="translate(0,0)"/>
<path d="M0 0 C2 1 2 1 2 1 Z " fill="#FAFBF9" transform="translate(340,446)"/>
<path d="" fill="#F9FBFC" transform="translate(0,0)"/>
<path d="" fill="#F9F8F9" transform="translate(0,0)"/>
<path d="" fill="#F9FAF9" transform="translate(0,0)"/>
<path d="" fill="#F7F8F9" transform="translate(0,0)"/>
<path d="" fill="#FAFAFA" transform="translate(0,0)"/>
<path d="" fill="#FBFBFA" transform="translate(0,0)"/>
<path d="" fill="#F9FBFB" transform="translate(0,0)"/>
<path d="" fill="#F9F9FB" transform="translate(0,0)"/>
<path d="" fill="#F8F8F8" transform="translate(0,0)"/>
<path d="" fill="#FBFCFA" transform="translate(0,0)"/>
<path d="" fill="#F9F8F7" transform="translate(0,0)"/>
<path d="M0 0 C2 1 2 1 2 1 Z " fill="#F8F7F6" transform="translate(841,392)"/>
<path d="" fill="#F9FBFA" transform="translate(0,0)"/>
<path d="M0 0 C2 1 2 1 2 1 Z " fill="#FCFAFA" transform="translate(778,379)"/>
<path d="M0 0 C2 1 2 1 2 1 Z " fill="#FCFAFA" transform="translate(752,355)"/>
<path d="M0 0 C2 1 2 1 2 1 Z " fill="#FCFBFB" transform="translate(708,354)"/>
<path d="M0 0 C2 1 2 1 2 1 Z " fill="#F9F8F8" transform="translate(607,349)"/>
<path d="M0 0 C2 1 2 1 2 1 Z " fill="#F9F7F7" transform="translate(482,341)"/>
<path d="M0 0 C2 1 2 1 2 1 Z " fill="#F9FAFA" transform="translate(700,340)"/>
<path d="M0 0 C2 1 2 1 2 1 Z " fill="#DEDFDE" transform="translate(272,327)"/>
<path d="M0 0 C2 1 2 1 2 1 Z " fill="#F4F4F4" transform="translate(732,324)"/>
<path d="" fill="#EFF0EF" transform="translate(0,0)"/>
<path d="" fill="#3D3E3D" transform="translate(0,0)"/>
<path d="" fill="#4C4D4D" transform="translate(0,0)"/>
<path d="" fill="#F3F3F6" transform="translate(0,0)"/>
<path d="" fill="#F5F7F5" transform="translate(0,0)"/>
<path d="" fill="#F5F6F4" transform="translate(0,0)"/>
<path d="" fill="#F6F8F5" transform="translate(0,0)"/>
<path d="" fill="#F5F6F6" transform="translate(0,0)"/>
<path d="" fill="#E2E5E3" transform="translate(0,0)"/>
<path d="" fill="#F5F8F8" transform="translate(0,0)"/>
<path d="" fill="#F7F9F6" transform="translate(0,0)"/>
<path d="" fill="#F9F9F7" transform="translate(0,0)"/>
<path d="" fill="#F1F0F1" transform="translate(0,0)"/>
<path d="" fill="#FAFCFB" transform="translate(0,0)"/>
<path d="" fill="#F9F8F7" transform="translate(0,0)"/>
<path d="" fill="#FAFAFC" transform="translate(0,0)"/>
<path d="" fill="#F7F9F6" transform="translate(0,0)"/>
<path d="" fill="#FDFBF9" transform="translate(0,0)"/>
<path d="" fill="#FAFAF9" transform="translate(0,0)"/>
<path d="" fill="#FBFBF9" transform="translate(0,0)"/>
<path d="" fill="#FBFBFA" transform="translate(0,0)"/>
<path d="" fill="#FAF9F9" transform="translate(0,0)"/>
<path d="" fill="#F2EFF0" transform="translate(0,0)"/>
<path d="" fill="#F2F2F1" transform="translate(0,0)"/>
<path d="" fill="#F9F9FA" transform="translate(0,0)"/>
<path d="" fill="#FAFAF9" transform="translate(0,0)"/>
<path d="" fill="#F9FAFD" transform="translate(0,0)"/>
<path d="" fill="#F7F8F7" transform="translate(0,0)"/>
<path d="" fill="#FAFAF8" transform="translate(0,0)"/>
<path d="" fill="#FAFAFB" transform="translate(0,0)"/>
<path d="" fill="#FCFDFC" transform="translate(0,0)"/>
<path d="" fill="#FDFDFB" transform="translate(0,0)"/>
<path d="" fill="#F7F8F7" transform="translate(0,0)"/>
<path d="" fill="#FEFBFC" transform="translate(0,0)"/>
<path d="" fill="#FAFDFC" transform="translate(0,0)"/>
<path d="" fill="#FAFAF9" transform="translate(0,0)"/>
<path d="" fill="#FAFBF9" transform="translate(0,0)"/>
<path d="" fill="#F5F6F6" transform="translate(0,0)"/>
<path d="" fill="#F8F5F5" transform="translate(0,0)"/>
<path d="" fill="#F3F3F3" transform="translate(0,0)"/>
<path d="" fill="#F4F4F3" transform="translate(0,0)"/>
<path d="" fill="#FAFCF9" transform="translate(0,0)"/>
<path d="" fill="#F1F4F4" transform="translate(0,0)"/>
<path d="" fill="#FAFAF8" transform="translate(0,0)"/>
<path d="" fill="#F9F9F9" transform="translate(0,0)"/>
<path d="" fill="#FAFAFC" transform="translate(0,0)"/>
<path d="" fill="#F9F9FB" transform="translate(0,0)"/>
<path d="" fill="#F7F9F7" transform="translate(0,0)"/>
<path d="" fill="#FBFAF9" transform="translate(0,0)"/>
<path d="" fill="#F9FAF8" transform="translate(0,0)"/>
<path d="" fill="#FAFBF9" transform="translate(0,0)"/>
<path d="" fill="#FEFCFC" transform="translate(0,0)"/>
<path d="" fill="#FBFAF9" transform="translate(0,0)"/>
<path d="" fill="#F8F9F7" transform="translate(0,0)"/>
<path d="" fill="#FDF9F8" transform="translate(0,0)"/>
<path d="" fill="#F7FAFA" transform="translate(0,0)"/>
<path d="" fill="#F9FAF9" transform="translate(0,0)"/>
<path d="" fill="#F7F9F8" transform="translate(0,0)"/>
<path d="" fill="#F7F6F7" transform="translate(0,0)"/>
<path d="" fill="#FAFBFA" transform="translate(0,0)"/>
<path d="" fill="#FEFBFC" transform="translate(0,0)"/>
<path d="" fill="#F9FBFA" transform="translate(0,0)"/>
<path d="" fill="#F4F5F5" transform="translate(0,0)"/>
<path d="" fill="#F1F0F1" transform="translate(0,0)"/>
<path d="" fill="#FBFBF8" transform="translate(0,0)"/>
<path d="" fill="#FAFAFA" transform="translate(0,0)"/>
<path d="" fill="#F6F6F4" transform="translate(0,0)"/>
<path d="" fill="#F9F7F7" transform="translate(0,0)"/>
<path d="" fill="#F7F8F7" transform="translate(0,0)"/>
<path d="" fill="#FCFBFC" transform="translate(0,0)"/>
<path d="" fill="#F6F5F5" transform="translate(0,0)"/>
<path d="" fill="#F9F7F8" transform="translate(0,0)"/>
<path d="" fill="#FAF6F6" transform="translate(0,0)"/>
<path d="" fill="#F9F8F9" transform="translate(0,0)"/>
<path d="" fill="#FCFBFA" transform="translate(0,0)"/>
<path d="" fill="#F6F6F4" transform="translate(0,0)"/>
<path d="" fill="#F7F8F8" transform="translate(0,0)"/>
<path d="" fill="#FAFBFA" transform="translate(0,0)"/>
<path d="" fill="#FAFBFA" transform="translate(0,0)"/>
<path d="" fill="#FBFAFA" transform="translate(0,0)"/>
<path d="" fill="#F4F6F7" transform="translate(0,0)"/>
<path d="" fill="#F0F2F2" transform="translate(0,0)"/>
<path d="" fill="#F4F5F5" transform="translate(0,0)"/>
<path d="" fill="#FBFAFB" transform="translate(0,0)"/>
<path d="" fill="#F8F7F7" transform="translate(0,0)"/>
<path d="" fill="#FBFAF9" transform="translate(0,0)"/>
<path d="" fill="#F6F7F5" transform="translate(0,0)"/>
<path d="" fill="#FBFAF8" transform="translate(0,0)"/>
<path d="" fill="#FDFBFA" transform="translate(0,0)"/>
<path d="" fill="#F8F8F7" transform="translate(0,0)"/>
<path d="" fill="#FBFBF9" transform="translate(0,0)"/>
<path d="" fill="#FBFBFB" transform="translate(0,0)"/>
<path d="" fill="#FBFAF8" transform="translate(0,0)"/>
<path d="" fill="#FAFAFA" transform="translate(0,0)"/>
<path d="" fill="#FEFFFD" transform="translate(0,0)"/>
<path d="" fill="#FCFBF9" transform="translate(0,0)"/>
<path d="" fill="#FBFBFB" transform="translate(0,0)"/>
<path d="" fill="#FBFAF9" transform="translate(0,0)"/>
<path d="" fill="#FBFCFB" transform="translate(0,0)"/>
<path d="" fill="#F9FAF9" transform="translate(0,0)"/>
<path d="" fill="#FBFBFA" transform="translate(0,0)"/>
<path d="" fill="#FBFCFA" transform="translate(0,0)"/>
<path d="" fill="#FAFBF9" transform="translate(0,0)"/>
<path d="" fill="#FBFCFB" transform="translate(0,0)"/>
<path d="" fill="#F8F9F7" transform="translate(0,0)"/>
<path d="" fill="#F8F8F9" transform="translate(0,0)"/>
<path d="" fill="#FAFAF8" transform="translate(0,0)"/>
<path d="" fill="#FCFCFC" transform="translate(0,0)"/>
<path d="" fill="#F3F4F2" transform="translate(0,0)"/>
<path d="" fill="#FAFAF9" transform="translate(0,0)"/>
<path d="" fill="#F5F5F5" transform="translate(0,0)"/>
<path d="" fill="#F5F6F5" transform="translate(0,0)"/>
<path d="" fill="#F8FBFA" transform="translate(0,0)"/>
<path d="" fill="#F9F8FB" transform="translate(0,0)"/>
<path d="" fill="#F6F7F8" transform="translate(0,0)"/>
<path d="" fill="#F7F8F7" transform="translate(0,0)"/>
<path d="" fill="#F6F6F7" transform="translate(0,0)"/>
<path d="" fill="#FAFAFA" transform="translate(0,0)"/>
<path d="" fill="#F7F7F9" transform="translate(0,0)"/>
<path d="" fill="#FAFBF7" transform="translate(0,0)"/>
<path d="" fill="#F8FAF9" transform="translate(0,0)"/>
<path d="" fill="#F5F4F3" transform="translate(0,0)"/>
<path d="" fill="#F7F8F5" transform="translate(0,0)"/>
<path d="" fill="#F3F4F2" transform="translate(0,0)"/>
<path d="" fill="#FAF8FB" transform="translate(0,0)"/>
<path d="" fill="#F1F1F3" transform="translate(0,0)"/>
<path d="" fill="#F9F8F7" transform="translate(0,0)"/>
<path d="" fill="#F9F9F7" transform="translate(0,0)"/>
<path d="" fill="#F3F2F2" transform="translate(0,0)"/>
<path d="" fill="#F9F9FA" transform="translate(0,0)"/>
<path d="" fill="#F8F7F6" transform="translate(0,0)"/>
<path d="" fill="#FAFBF9" transform="translate(0,0)"/>
<path d="" fill="#FAFBFD" transform="translate(0,0)"/>
<path d="" fill="#F8F6F6" transform="translate(0,0)"/>
<path d="" fill="#F8F7F8" transform="translate(0,0)"/>
<path d="" fill="#F7F8F6" transform="translate(0,0)"/>
<path d="" fill="#F5F6F6" transform="translate(0,0)"/>
<path d="" fill="#F9F9F8" transform="translate(0,0)"/>
<path d="" fill="#F6F7F5" transform="translate(0,0)"/>
<path d="" fill="#FCFBFA" transform="translate(0,0)"/>
<path d="" fill="#F6F5F6" transform="translate(0,0)"/>
<path d="" fill="#F8FBF7" transform="translate(0,0)"/>
<path d="" fill="#F6F5F6" transform="translate(0,0)"/>
<path d="" fill="#F9F7FA" transform="translate(0,0)"/>
<path d="" fill="#F6F7F6" transform="translate(0,0)"/>
<path d="" fill="#F6F6F6" transform="translate(0,0)"/>
<path d="" fill="#F9F9F8" transform="translate(0,0)"/>
<path d="" fill="#F9FAF8" transform="translate(0,0)"/>
<path d="" fill="#FAF9F8" transform="translate(0,0)"/>
<path d="" fill="#F9FBFB" transform="translate(0,0)"/>
<path d="" fill="#F9F9F9" transform="translate(0,0)"/>
<path d="" fill="#F9FAFA" transform="translate(0,0)"/>
<path d="" fill="#F8F8F7" transform="translate(0,0)"/>
<path d="" fill="#F7F7F6" transform="translate(0,0)"/>
<path d="" fill="#FAF8F9" transform="translate(0,0)"/>
<path d="" fill="#FBFCF9" transform="translate(0,0)"/>
<path d="" fill="#FBF9F9" transform="translate(0,0)"/>
<path d="" fill="#F9F9F9" transform="translate(0,0)"/>
<path d="" fill="#F6F6F5" transform="translate(0,0)"/>
<path d="" fill="#F9F8F8" transform="translate(0,0)"/>
<path d="" fill="#FBFCF9" transform="translate(0,0)"/>
<path d="" fill="#FCFCFB" transform="translate(0,0)"/>
<path d="" fill="#FCFBFB" transform="translate(0,0)"/>
<path d="" fill="#FBFBF9" transform="translate(0,0)"/>
<path d="" fill="#F4F5F6" transform="translate(0,0)"/>
<path d="" fill="#FCF9F9" transform="translate(0,0)"/>
<path d="" fill="#FAFCFB" transform="translate(0,0)"/>
<path d="" fill="#FAFBFA" transform="translate(0,0)"/>
<path d="" fill="#F9FAF9" transform="translate(0,0)"/>
<path d="" fill="#F9F8F7" transform="translate(0,0)"/>
<path d="" fill="#FAFAF9" transform="translate(0,0)"/>
<path d="" fill="#F2F4F4" transform="translate(0,0)"/>
<path d="" fill="#F8F9F8" transform="translate(0,0)"/>
<path d="" fill="#FDFDFB" transform="translate(0,0)"/>
<path d="" fill="#F7F9F8" transform="translate(0,0)"/>
<path d="" fill="#FCFBF9" transform="translate(0,0)"/>
<path d="" fill="#FBFBFC" transform="translate(0,0)"/>
<path d="" fill="#FBFBFA" transform="translate(0,0)"/>
<path d="" fill="#FAFBF9" transform="translate(0,0)"/>
<path d="" fill="#FBFCF9" transform="translate(0,0)"/>
<path d="" fill="#FAFCFB" transform="translate(0,0)"/>
<path d="" fill="#F8FAF8" transform="translate(0,0)"/>
<path d="" fill="#FAF9FA" transform="translate(0,0)"/>
<path d="" fill="#F9F9FA" transform="translate(0,0)"/>
<path d="" fill="#F7F8F8" transform="translate(0,0)"/>
<path d="" fill="#FCFDFC" transform="translate(0,0)"/>
<path d="" fill="#FAFCFB" transform="translate(0,0)"/>
<path d="" fill="#FCFBF9" transform="translate(0,0)"/>
<path d="" fill="#F6F6F7" transform="translate(0,0)"/>
<path d="" fill="#F4F4F5" transform="translate(0,0)"/>
<path d="" fill="#F7F8F7" transform="translate(0,0)"/>
<path d="" fill="#FAF9FA" transform="translate(0,0)"/>
<path d="" fill="#F8F8F8" transform="translate(0,0)"/>
<path d="" fill="#FCFCFB" transform="translate(0,0)"/>
<path d="" fill="#F7F9F8" transform="translate(0,0)"/>
<path d="" fill="#FAF8F9" transform="translate(0,0)"/>
<path d="" fill="#FDFCFB" transform="translate(0,0)"/>
<path d="" fill="#F7F9F8" transform="translate(0,0)"/>
<path d="" fill="#F6F6F7" transform="translate(0,0)"/>
<path d="" fill="#FAF8FA" transform="translate(0,0)"/>
<path d="" fill="#F9F9F7" transform="translate(0,0)"/>
<path d="" fill="#F8FAF9" transform="translate(0,0)"/>
<path d="" fill="#FAFAF9" transform="translate(0,0)"/>
<path d="" fill="#F9FAF9" transform="translate(0,0)"/>
<path d="" fill="#F8FAF9" transform="translate(0,0)"/>
<path d="" fill="#FFFDFD" transform="translate(0,0)"/>
<path d="" fill="#FAFBFA" transform="translate(0,0)"/>
<path d="" fill="#FBFBFB" transform="translate(0,0)"/>
<path d="" fill="#F8FBFB" transform="translate(0,0)"/>
<path d="" fill="#F8FAFA" transform="translate(0,0)"/>
<path d="" fill="#F9FAF8" transform="translate(0,0)"/>
<path d="" fill="#F5F5F4" transform="translate(0,0)"/>
<path d="" fill="#FBF9FA" transform="translate(0,0)"/>
<path d="" fill="#F9FAF8" transform="translate(0,0)"/>
<path d="" fill="#F6F7F4" transform="translate(0,0)"/>
<path d="" fill="#FAF9FA" transform="translate(0,0)"/>
<path d="" fill="#F7F9F9" transform="translate(0,0)"/>
<path d="" fill="#F9F9F8" transform="translate(0,0)"/>
<path d="" fill="#FAFAF8" transform="translate(0,0)"/>
<path d="" fill="#F9F9F9" transform="translate(0,0)"/>
<path d="" fill="#F9F6F7" transform="translate(0,0)"/>
<path d="" fill="#FCFCFA" transform="translate(0,0)"/>
<path d="" fill="#F9FCFB" transform="translate(0,0)"/>
<path d="" fill="#FBFAFA" transform="translate(0,0)"/>
<path d="" fill="#FFFEFD" transform="translate(0,0)"/>
<path d="" fill="#F5F3F5" transform="translate(0,0)"/>
<path d="" fill="#F8FDFC" transform="translate(0,0)"/>
<path d="" fill="#F6F6F5" transform="translate(0,0)"/>
<path d="" fill="#FBFAF9" transform="translate(0,0)"/>
<path d="" fill="#FAFAFB" transform="translate(0,0)"/>
<path d="" fill="#F9FAFA" transform="translate(0,0)"/>
<path d="" fill="#FCFAFB" transform="translate(0,0)"/>
<path d="" fill="#F9F8F8" transform="translate(0,0)"/>
<path d="" fill="#FBFAFA" transform="translate(0,0)"/>
<path d="" fill="#FAFAF9" transform="translate(0,0)"/>
<path d="" fill="#FBF9F9" transform="translate(0,0)"/>
<path d="" fill="#FAFAFB" transform="translate(0,0)"/>
<path d="" fill="#F9F9FA" transform="translate(0,0)"/>
<path d="" fill="#FBFAF8" transform="translate(0,0)"/>
<path d="" fill="#FBF9FA" transform="translate(0,0)"/>
<path d="" fill="#F7F5F7" transform="translate(0,0)"/>
<path d="" fill="#FAF9F9" transform="translate(0,0)"/>
<path d="" fill="#F9FAF9" transform="translate(0,0)"/>
<path d="" fill="#FAF9F9" transform="translate(0,0)"/>
<path d="" fill="#F7F7F6" transform="translate(0,0)"/>
<path d="" fill="#FBFAFB" transform="translate(0,0)"/>
<path d="" fill="#FAF9F9" transform="translate(0,0)"/>
<path d="" fill="#F8F7F5" transform="translate(0,0)"/>
<path d="" fill="#F9F9F9" transform="translate(0,0)"/>
<path d="" fill="#F7F8F7" transform="translate(0,0)"/>
<path d="" fill="#F4F4F4" transform="translate(0,0)"/>
<path d="" fill="#FCFCFA" transform="translate(0,0)"/>
<path d="" fill="#FAFAF8" transform="translate(0,0)"/>
<path d="" fill="#F4F2F2" transform="translate(0,0)"/>
<path d="" fill="#FBFCF8" transform="translate(0,0)"/>
<path d="" fill="#F7F7F7" transform="translate(0,0)"/>
<path d="" fill="#F3F3F3" transform="translate(0,0)"/>
<path d="" fill="#F0EFF0" transform="translate(0,0)"/>
<path d="" fill="#F3F4F3" transform="translate(0,0)"/>
<path d="" fill="#F4F3F3" transform="translate(0,0)"/>
<path d="" fill="#F2F3F2" transform="translate(0,0)"/>
<path d="" fill="#F3F4F3" transform="translate(0,0)"/>
<path d="" fill="#F3F4F2" transform="translate(0,0)"/>
<path d="" fill="#F3F3F3" transform="translate(0,0)"/>
<path d="" fill="#F2F1F0" transform="translate(0,0)"/>
<path d="" fill="#EAEAE8" transform="translate(0,0)"/>
<path d="" fill="#F4F4F3" transform="translate(0,0)"/>
<path d="" fill="#F4F5F3" transform="translate(0,0)"/>
<path d="" fill="#F2F3F3" transform="translate(0,0)"/>
<path d="" fill="#F7F7F6" transform="translate(0,0)"/>
<path d="" fill="#EEEEEF" transform="translate(0,0)"/>
<path d="" fill="#5F5F60" transform="translate(0,0)"/>
</svg>
